<svg xmlns="http://www.w3.org/2000/svg" width="101.671" height="47.198" viewBox="0 0 101.671 47.198"><g transform="translate(1134.837 -491.638)"><path d="M-493.566,515.586a8.656,8.656,0,0,0,1.363-.013,21.971,21.971,0,0,0,2.593-.551,11.91,11.91,0,0,0,8.619-13.108c-.878-5.716-5.586-9.214-10.752-9.856-.474-.059-.546.13-.481.562a5.816,5.816,0,0,0,1.2,2.669,37.048,37.048,0,0,0,2.719,2.862,7.733,7.733,0,0,1,2.486,5.138,7.507,7.507,0,0,1-6.671,7.8,7.524,7.524,0,0,1-7.649-3.7,7.255,7.255,0,0,1,.654-8.119,35.451,35.451,0,0,1,2.948-3.059,6.915,6.915,0,0,0,2.137-3.679c.061-.38.009-.537-.444-.492a14.28,14.28,0,0,0-4.088,1.083,11.622,11.622,0,0,0-6.442,14.37A12.174,12.174,0,0,0-493.566,515.586Z" transform="translate(-552.685 -0.349)" fill="#0d2d46"/><path d="M-819.921,516.376c3.218.534,6.47.279,9.708.336.221,0,.365-.021.417-.3a2.127,2.127,0,0,0-.334-1.918,2.128,2.128,0,0,0-1.755-.843c-1.644-.148-3.292-.085-4.934-.112-2.456-.04-3.963-1.109-4.534-3.257a11.469,11.469,0,0,1-.37-3.306c.013-.44.2-.474.563-.47,1.7.02,3.394.009,5.091.009v0c1.7,0,3.394.006,5.09-.008.2,0,.58.174.537-.285-.177-1.814.026-2.75-2.532-2.782-2.687-.035-5.368-.067-8.052-.056-.6,0-.762-.2-.675-.739.1-.65.139-1.313.289-1.948a4.616,4.616,0,0,1,3.137-3.769,7.461,7.461,0,0,1,2.175-.288c1.774,0,3.546.006,5.32-.007.218,0,.513.148.629-.228a2.19,2.19,0,0,0-.273-1.848,2.19,2.19,0,0,0-1.6-.965,27.43,27.43,0,0,0-6.957.183c-3.59.592-6.061,2.5-7.03,6.139a21.15,21.15,0,0,0-.073,10.662A7.147,7.147,0,0,0-819.921,516.376Z" transform="translate(-270.788 -1.594)" fill="#0d2d46"/><path d="M-649.3,515.362a39.908,39.908,0,0,0,5,.206h1.747c.6,0,1.216-.014,1.823.008.374.014.523-.08.537-.5.073-1.956-.438-2.546-2.406-2.683-.2-.014-.4-.014-.6-.02-1.669-.052-3.345-.032-5.006-.174a3.732,3.732,0,0,1-3.605-3.148,23.114,23.114,0,0,1,.028-10.081,4.972,4.972,0,0,1,1.1-2.217,4.77,4.77,0,0,1,3.762-1.494c1.948-.042,3.9-.007,5.85-.021.193,0,.474.15.58-.174a2.284,2.284,0,0,0-.325-1.98,2.284,2.284,0,0,0-1.762-.96,26.809,26.809,0,0,0-6.8.185c-3.365.537-5.912,2.2-7.009,5.6a19.83,19.83,0,0,0-.33,11.155C-655.663,513.2-653.579,514.876-649.3,515.362Z" transform="translate(-419.646 -0.309)" fill="#0d2d46"/><path d="M-943.8,516.487c.58.042,1.163.034,1.741.093.638.067.822-.189.823-.818,0-3.014.067-6.028.067-9.042,0-.6.2-.707.742-.7,1.646.032,3.292.011,4.94.011,1.753,0,1.753,0,1.53-1.743-.127-.995-.541-1.365-1.55-1.368-1.647,0-3.292-.009-4.94,0-.365,0-.55-.06-.543-.493.025-1.545-.007-3.09.019-4.635a1.42,1.42,0,0,1,.378-1.051,1.42,1.42,0,0,1,1.021-.453,8.631,8.631,0,0,1,.985-.037c1.368-.007,2.736,0,4.1-.017.2,0,.46.1.558-.23a2.188,2.188,0,0,0-.251-2.029,2.187,2.187,0,0,0-1.819-.935c-1.62-.05-3.241-.019-4.862,0a9.934,9.934,0,0,0-1.285.115c-2.418.336-3.352,1.33-3.542,3.773-.236,3.034-.106,6.077-.269,9.115,0,2.71-.013,5.42,0,8.128C-945.94,515.826-945.416,516.371-943.8,516.487Z" transform="translate(-166.001 -1.215)" fill="#0d2d46"/><path d="M-447.081,510.774a30.487,30.487,0,0,0-3.245,4.09,5.225,5.225,0,0,0-.058,5.219,5.769,5.769,0,0,0,5.9,3.014,6.007,6.007,0,0,0,5.061-4.619,4.7,4.7,0,0,0-.7-3.762c-1.092-1.863-2.75-3.277-4-5.019a8.39,8.39,0,0,1-.949-2.217,13.181,13.181,0,0,1-1.085,2.2C-446.46,510.046-446.785,510.4-447.081,510.774Z" transform="translate(-600.97 -13.924)" fill="#f2c454"/><path d="M-1020.772,513.663a1.256,1.256,0,0,0,.264,1,1.256,1.256,0,0,0,.928.462,17.524,17.524,0,0,0,2.572.163c.568.04.732-.141.729-.715-.025-3.672-.013-7.344-.013-11.017v-4.523h.013v-7.4h-2.553a1.941,1.941,0,0,0-1.941,1.941v5.457h0Q-1020.773,506.349-1020.772,513.663Z" transform="translate(-100.248)" fill="#0d2d46"/><path d="M-777.163,723.38c.04,1.163.083,2.326.118,3.489.042,1.368.038,1.368-1.357,1.368a5.624,5.624,0,0,0-.835.007c-.588.089-.717-.151-.693-.71.067-1.643.087-3.288.106-4.933,0-.191.146-.49-.179-.565-.368-.085-1,.476-.993.863.026,1.417.044,2.834.095,4.25.039,1.087.06,1.086-1.063,1.086a7.622,7.622,0,0,0-.835.006c-.416.046-.481-.126-.482-.513a4.963,4.963,0,0,0-.492-2.418c-.639.3-1.142.6-.717,1.432a2.351,2.351,0,0,1,.083.973c.006.345-.1.554-.531.529-.656-.039-1.317-.024-1.975,0-.324.009-.443-.076-.417-.426a4.991,4.991,0,0,0-.175-1.73c-.072-.255-.057-.658-.336-.693-.212-.028-.459.257-.7.391-.3.169-.14.376-.067.586a3.663,3.663,0,0,1,.189,1.344c-.015.37-.134.548-.546.529a18.546,18.546,0,0,0-1.9,0c-.424.023-.47-.142-.478-.519a10.007,10.007,0,0,0-.2-1.652c-.048-.257-.058-.662-.324-.7-.208-.029-.463.259-.695.408-.357.231-.091.494-.024.735.4,1.436.2,1.718-1.25,1.718h-.076c-1.4,0-1.845-.4-1.972-1.8-.061-.668-.1-1.337-.15-2.006l-.159-.13c-.781,1.16-2.039,1.634-3.11,2.379-.381.265-.553,1.79-.249,2.024,1.325,1.017,2.208,1.154,2.873-.41.03-.067.021-.2.224-.174.39,1.159,1.28,1.415,2.442,1.385,2.379-.063,4.761-.019,7.142-.019,3.368,0,6.737-.015,10.105.014.574,0,.728-.147.708-.713-.035-1.008.03-2.023.038-3.036.009-1.233,0-2.465,0-3.7C-777.2,722.3-777.2,722.3-777.163,723.38Zm-20.287,4.664c-.558.345-.947-.243-1.51-.507a4.614,4.614,0,0,1,2.015-1.008,1.44,1.44,0,0,1-.507,1.514Z" transform="translate(-294.544 -202.487)" fill="#0d2d46"/><path d="M-1084.4,748.984a19.16,19.16,0,0,1,7.76.958c.393.156.612.024.672-.323.106-.6.485-.637.983-.633,2.456.018,4.913.012,7.369,0,.265,0,.64.157.683-.348a9.441,9.441,0,0,0-.092-3.094c-.2-.825-.352-.856-.987-.3a.457.457,0,0,0-.113.6,3.406,3.406,0,0,1,.2,1.189c.015.52-.168.679-.739.739-.932.1-1.067-.459-1.268-1.106-.067-.212.134-.721-.435-.584a.6.6,0,0,0-.49.306.6.6,0,0,0,0,.578c.082.236.144.48.218.726-1.872.168-1.865.167-2.227-1.151-.054-.195.048-.6-.385-.462-.313.1-.7.17-.562.709a1.979,1.979,0,0,1,.21.951c-.493,0-.975-.028-1.453.009-.4.032-.564-.105-.66-.5a1.91,1.91,0,0,0-1.763-1.7,2.15,2.15,0,0,0-2.015,1.467.93.93,0,0,1-.432.637.931.931,0,0,1-.765.093,2.324,2.324,0,0,0-.531,0c-.352.041-.466-.077-.49-.453a4.663,4.663,0,0,0-.826-2.562c-.134-.183-.241-.739-.6-.4-.273.252-.92.507-.434,1.139a3.458,3.458,0,0,1,.724,1.808c.015.162.1.344-.128.455a2.653,2.653,0,0,1-2.582-.768C-1086.315,748.668-1086.118,749.034-1084.4,748.984Zm5.62-1.292a1.181,1.181,0,0,1,.961-1.026,1.411,1.411,0,0,1,1.022.565,1.411,1.411,0,0,1,.246,1.141c-.07.217-.172.264-.389.192-.357-.119-.739-.171-1.082-.318C-1078.308,748.123-1078.918,748.327-1078.777,747.692Z" transform="translate(-42.941 -221.993)" fill="#0d2d46"/><path d="M-439.342,728.337c-.041-.96.007-1.925.009-2.889,0-1.282,0-2.564,0-3.927-.537.281-1.233.193-1.167,1.084.088,1.185.077,2.377.116,3.566.052,1.621.054,1.587-1.557,1.636-.683.021-1.025-.08-.932-.873a4.258,4.258,0,0,0-.165-1.35c-.177-.821-.294-.84-.94-.324a.48.48,0,0,0-.154.652,3.008,3.008,0,0,1,.2,1.339c-.03.389-.175.571-.613.548-1.22-.067-.95.222-1.4-1.1-.067-.2.124-.732-.447-.564-.449.134-.708.361-.466.881a4.339,4.339,0,0,1,.2.726c-1.866.169-1.874.162-2.235-1.156-.054-.2.081-.6-.377-.461-.336.105-.708.215-.557.717.09.3.169.6.257.92-2.609,0-2.107.529-3.062-2.364-.99.916-.991.916-.56,2.035a10.133,10.133,0,0,0,.4.979.785.785,0,0,1-.047.843,3.93,3.93,0,0,1-2.429,1.925c-.269.071-.537.147-.883.241,1.887,1,3.325.441,4.157-1.627a1.021,1.021,0,0,1,1.142-.769c3.6.03,7.195,0,10.792.029C-439.473,729.064-439.319,728.9-439.342,728.337Z" transform="translate(-596.495 -202.044)" fill="#0d2d46"/><path d="M-915.609,727.753a5.885,5.885,0,0,1,.2,1.11c-.018.6.286.689.8.672,1.088-.034,2.179-.04,3.267,0,.525.02.642-.173.628-.65-.026-.885.006-1.772.007-2.659v-4.153c-1.2.305-1.18.3-1.132,1.433.06,1.416.067,2.834.119,4.25.015.38-.057.547-.482.524a18.627,18.627,0,0,0-1.9,0c-.391.018-.538-.089-.515-.5.052-.884.067-1.77.079-2.655.012-1.016,0-2.033,0-3.053-.923.092-1.251.529-1.165,1.411.089.9.014,1.823.05,2.733a1.021,1.021,0,0,1-.629,1.051c-.058-.288-.1-.537-.157-.78a6.019,6.019,0,0,0-2.77-4c-.15-.095-.283-.309-.519-.1a1.237,1.237,0,0,0-.444.932,1.237,1.237,0,0,0,.418.945c.191.167.379.336.58.49.1.075.21.281.355.059.206-.315.309-.071.436.067a7.366,7.366,0,0,1,1.313,2.288c.227.56.05.767-.465.989A18.014,18.014,0,0,0-920.8,729.8,5.079,5.079,0,0,0-915.609,727.753Z" transform="translate(-188.116 -202.524)" fill="#0d2d46"/><path d="M-543.152,728.6c.044-.091.1-.177.145-.269.912,1.284,1.028,1.4,1.808,1.4,1.7.015,3.394,0,5.09.013a.568.568,0,0,0,.6-.416,1.94,1.94,0,0,0-.612-2.375,13.9,13.9,0,0,0-2.65-1.889c.879-.355,1.65-.739,2.464-.975.879-.255,1.161-.9,1.461-1.778-1.594.656-3.06,1.254-4.52,1.864-.269.113-.926,1.635-.752,1.785.417.359.881.873,1.358.91,1.121.086,1.593.91,2.466,1.612h-4.16c-1.272,0-1.723-.388-1.864-1.661-.078-.7-.105-1.411-.156-2.115l-.2-.181c-.643,1.313-2.026,1.571-3.036,2.361a2.419,2.419,0,0,0-.343,2.035A1.6,1.6,0,0,0-543.152,728.6Zm-.22-1.835c.021.681-.032,1.28-.575,1.553-.562.282-.934-.275-1.433-.537A4.709,4.709,0,0,1-543.372,726.765Z" transform="translate(-517.39 -202.739)" fill="#0d2d46"/><path d="M-399,838.289a12.612,12.612,0,0,0,0-1.518,1.054,1.054,0,0,0-.324-.825,1.054,1.054,0,0,0-.839-.286,2.683,2.683,0,0,0-1.522.608c-.173-.739-.173-.739-1.387-.1.806-.008.711.507.7.983a7.779,7.779,0,0,0,.007,1.214c.087.672-.385.865-.843.867-.486,0-.986-.169-.883-.891.06-.422,0-.86.013-1.29a1.146,1.146,0,0,0-.861-1.329,2.092,2.092,0,0,0-2.154.566c-.155.249-.278.561.023.735.368.214.47-.127.546-.4.187-.652.676-.7,1.209-.566.439.108.547.47.537.889-.008.457-.377.336-.61.377a5.674,5.674,0,0,0-1.466.357.922.922,0,0,0-.622.948.929.929,0,0,0,.789.82,1.6,1.6,0,0,0,.821,0c.6-.211,1.184-.623,1.775.026a.342.342,0,0,0,.294.024c.767-.275,1.545.03,2.316-.067.134-.017.318.055.349-.261-.649-.006-.62-.47-.6-.944a7.38,7.38,0,0,0,0-.987.733.733,0,0,1,.444-.793c.409-.212.827-.437,1.286-.183.432.238.361.681.368,1.081,0,.253-.015.508,0,.759.042.531.01,1.012-.672,1.2a3.993,3.993,0,0,0,1.948-.011C-398.943,839.132-399.037,838.778-399,838.289Zm-6.411.591a.977.977,0,0,1-1.132.029c-.371-.31-.3-.672.086-.934a3,3,0,0,1,1.444-.359c.4-.038.176.318.249.446.1.552-.328.654-.646.818Z" transform="translate(-639.27 -302.339)" fill="#0d2d46"/><path d="M-502.377,838.192c-.009-.506.011-1.012-.014-1.517a.922.922,0,0,0-.283-.686.921.921,0,0,0-.7-.255,1.71,1.71,0,0,0-1.142.336c-.149.106-.279.294-.5.062a1.358,1.358,0,0,0-1.859-.087c-.114.067-.294.283-.369.117-.484-1.068-.857.179-1.355-.167.166.516.631.2.658.521.045.527-.006,1.063.03,1.591.038.553.02,1.053-.652,1.3a5.784,5.784,0,0,0,2.026.007c-.352-.294-.731-.294-.71-.715.029-.555-.054-1.121.023-1.667.086-.6.637-.752,1.139-.787.567-.04.613.4.6.836-.01.379-.017.759,0,1.138.025.5.039.971-.633,1.142a4.571,4.571,0,0,0,1.935.071c-.193-.341-.628-.243-.623-.631a12.793,12.793,0,0,1,.019-1.817c.095-.6.672-.725,1.174-.739.582-.018.562.453.558.873a8.6,8.6,0,0,0,.008,1.137.867.867,0,0,1-.1.692.868.868,0,0,1-.578.393,3.034,3.034,0,0,0,2.141-.08C-502.555,839.284-502.367,838.682-502.377,838.192Z" transform="translate(-550.394 -302.41)" fill="#0d2d46"/><path d="M-1125.729,752.491c-.056-1.357-.769-2.258-1.767-2.238a2.588,2.588,0,0,0-2.256,2.6c.028,1.008.739,1.59,1.908,1.567C-1126.493,754.392-1125.681,753.651-1125.729,752.491Zm-3.2-.06a.852.852,0,0,1,.574-.962,1,1,0,0,1,1.311.422c.209.3.543.672.336,1-.192.3-.684.222-1.037.282-.544-.039-1.063-.139-1.184-.744Z" transform="translate(-4.468 -227.294)" fill="#0d2d46"/><path d="M-887.788,822.834h-3.277c.832.525.833.525.833,1.369,0,.961-.014,1.922.006,2.883.009.455-.073.8-.648.93a4.891,4.891,0,0,0,2.137.067,2.14,2.14,0,0,1-.739-2.24c.094-.16.25-.134.4-.156.769-.107,1.142.3,1.313,1.068a11.071,11.071,0,0,0,.134-2.129c0-.12.025-.28-.134-.313-.223-.047-.224.134-.24.283-.08.739-.646.677-1.142.656-.609-.025-.3-.521-.35-.813a5.041,5.041,0,0,1-.006-.833c0-.2.078-.353.3-.345.9.033,1.928-.257,2.435.884.047.106.126.24.287.173.209-.087.1-.237.067-.38C-886.655,822.835-886.655,822.834-887.788,822.834Z" transform="translate(-214.248 -291.085)" fill="#0d2d46"/><path d="M-448.415,839.408a1.739,1.739,0,0,0-.18-.011.372.372,0,0,0,.18.011Z" transform="translate(-603.13 -305.642)" fill="#0d2d46"/><path d="M-445.926,836.19c-.117.059-.273.272-.374.075-.447-.873-.8-.038-1.252.04.744.088.522.662.528,1.088.012.833,0,1.666,0,2.5,0,.537.179,1.151-.592,1.4h1.869l.128-.178c-1.075-.062-.653-.806-.724-1.318-.055-.394.077-.452.47-.285a1.632,1.632,0,0,0,2.15-.525,2.274,2.274,0,0,0-.081-2.613C-444.352,835.76-444.971,835.709-445.926,836.19Zm.6,3.067c-.732-.008-1.021-.434-1.022-1.509,0-.9.4-1.373,1.16-1.391.648-.015,1.059.556,1.055,1.462C-444.133,838.706-444.6,839.265-445.321,839.257Z" transform="translate(-603.996 -302.539)" fill="#0d2d46"/><path d="M-1063.835,822.842c-.4.179-.486.089-.47-.3.014-.455,0-.912,0-1.368,0-.245-.1-.437-.355-.312-.307.148-.7.108-.964.4.646.3.646.3.646,1.086v3.419c0,.6.018.622.529.315.244-.146.315.067.446.141a1.718,1.718,0,0,0,1.567.148,1.719,1.719,0,0,0,1.03-1.191,2.025,2.025,0,0,0-.449-2.12A1.667,1.667,0,0,0-1063.835,822.842Zm.528,3.192c-.739-.021-1-.449-1-1.612,0-1,.312-1.37,1.142-1.354.689.013,1.075.537,1.075,1.458-.006.948-.475,1.53-1.218,1.509Z" transform="translate(-60.829 -289.316)" fill="#0d2d46"/><path d="M-586.328,826.708a2.109,2.109,0,0,1-2.357.552,2.049,2.049,0,0,1-1.249-1.841c0-1.4.557-2.3,1.374-2.54.906-.263,1.523.057,2.194,1.137a.951.951,0,0,0,.114.195.269.269,0,0,0,.187.077.166.166,0,0,0,.13-.066.166.166,0,0,0,.028-.143,8.431,8.431,0,0,0-.4-1.455c-.173-.377-.382.238-.623.079a.871.871,0,0,0-.2-.1,2.677,2.677,0,0,0-3.359,1.268,2.827,2.827,0,0,0,.8,3.537,2.754,2.754,0,0,0,3.589-.385c.14-.142.474-.29.277-.527C-586.083,826.185-586.19,826.592-586.328,826.708Z" transform="translate(-478.145 -290.73)" fill="#0d2d46"/><path d="M-949.55,838.107c.028-.352.01-.708,0-1.062-.017-1.067-.672-1.534-1.7-1.308-.394.087-.862.963-1.258-.017a.188.188,0,0,0-.143.009c-.288.193-.7.115-.963.429.2.269.725.019.641.462-.173.916.56,2.031-.6,2.734a3.752,3.752,0,0,0,2.1-.084c-.431-.144-.851-.153-.816-.628.038-.528-.026-1.065.017-1.592.05-.609.6-.677,1.042-.821a.714.714,0,0,1,.918.329,3.306,3.306,0,0,1-.543,2.849,4.806,4.806,0,0,0,1.974-.081C-949.6,839.15-949.591,838.646-949.55,838.107Z" transform="translate(-159.277 -302.376)" fill="#0d2d46"/><path d="M-306.344,722.487c-.026,2.187-.009,4.376-.009,6.564l.278.064c.255-.566.784-1.035.8-1.667.052-1.9.019-3.8.019-5.754C-305.623,721.967-306.336,721.777-306.344,722.487Z" transform="translate(-728.14 -202.194)" fill="#0d2d46"/><path d="M-592.325,722.157c-1.164.3-1.178.306-1.12,1.432.1,1.965.134,3.93.191,5.919a3.1,3.1,0,0,0,.9-1.626C-592.279,725.975-592.325,724.067-592.325,722.157Z" transform="translate(-475.807 -202.601)" fill="#0d2d46"/><path d="M-1118.642,826.542c-.2-.09-.255.116-.318.235a2.034,2.034,0,0,1-1.943,1.07c-.434.011-.57-.148-.558-.572.025-.959,0-1.92.009-2.879,0-.537-.184-1.161.672-1.36a4.7,4.7,0,0,0-2.134.042c.92.1.714.717.718,1.221.005.884-.017,1.769.009,2.652.015.522.019,1-.7,1.122l.087.19h2.52c1.343,0,1.411-.05,1.7-1.322C-1118.55,826.8-1118.462,826.624-1118.642,826.542Z" transform="translate(-10.476 -291.172)" fill="#0d2d46"/><path d="M-1025.209,837.336c-.251.528-.457,1.075-.739,1.747-.281-.641-.5-1.145-.724-1.646-.193-.431-.5-.881.353-1.084a4.934,4.934,0,0,0-2.011-.052c.2.314.538.3.661.583.418.972.91,1.915,1.276,2.9.178.477-.194.912-.5,1.27-.282.331-.569.152-.851-.079-.175-.144-.436-.244-.562.067-.1.255.058.414.288.532a1.252,1.252,0,0,0,1,0,1.253,1.253,0,0,0,.68-.728c.455-.955.838-1.942,1.261-2.912.257-.59.365-1.276,1.022-1.662h-1.439C-1024.915,836.543-1025,836.9-1025.209,837.336Z" transform="translate(-93.604 -302.85)" fill="#0d2d46"/><path d="M-986.8,837.945c0-.278-.017-.557,0-.834a1.126,1.126,0,0,0-.81-1.352,2.163,2.163,0,0,0-2.167.519.657.657,0,0,0-.13.637.279.279,0,0,0,.294.191c.3-.015.319-.269.385-.484.182-.6.646-.662,1.153-.559.439.089.584.429.6.849.021.5-.38.38-.64.443-.391.1-.806.118-1.184.241-.537.173-1,.494-.858,1.142a1.049,1.049,0,0,0,1.227.776,1.469,1.469,0,0,0,.726-.172c.433-.292.758-.372,1.189.052.263.259.7.171,1.142-.1C-986.974,839.335-986.794,838.581-986.8,837.945Zm-1.365.981a.922.922,0,0,1-1.133-.03.518.518,0,0,1-.184-.446.517.517,0,0,1,.264-.4,2.723,2.723,0,0,1,1.519-.394c.312-.021.217.269.227.314C-987.349,838.667-987.819,838.757-988.161,838.927Z" transform="translate(-127.143 -302.367)" fill="#0d2d46"/><path d="M-328.324,836.335c.187.265.739.154.53.631-.289.663-.56,1.334-.889,2.122-.285-.661-.5-1.192-.743-1.706-.212-.444-.349-.837.392-1.019a4.445,4.445,0,0,0-1.974-.067c.134.336.49.3.611.589.4.951.88,1.872,1.254,2.833.206.529-.185.962-.493,1.352-.209.265-.49.2-.736-.009-.177-.15-.365-.306-.6-.126a.326.326,0,0,0-.1.26.57.57,0,0,0,.537.458,1.258,1.258,0,0,0,1.46-.814c.5-1.1.963-2.217,1.436-3.331.192-.451.318-.947.89-1.164A2.745,2.745,0,0,0-328.324,836.335Z" transform="translate(-706.42 -302.846)" fill="#0d2d46"/><path d="M-703.009,838.4c-.162-.074-.23.064-.28.17-.423.889-1.2.87-2.16.8.156-.22.231-.344.324-.453.654-.77,1.311-1.536,1.966-2.3.112-.134.269-.269.186-.461-.091-.216-.306-.126-.47-.129a12.567,12.567,0,0,1-1.589-.02c-.739-.112-.972.316-1.147.883-.036.116-.134.232.011.328a.213.213,0,0,0,.182.031.213.213,0,0,0,.138-.122c.413-.781,1.1-.733,1.93-.638-.785.932-1.511,1.793-2.234,2.655-.111.134-.3.249-.236.443.089.269.345.138.525.144a11.791,11.791,0,0,1,1.664.024c.879.156,1.057-.425,1.263-1.028C-702.9,838.6-702.856,838.47-703.009,838.4Z" transform="translate(-376.547 -302.644)" fill="#0d2d46"/><path d="M-541.691,835.844a1.783,1.783,0,0,0-1.372.543,1.783,1.783,0,0,0-.493,1.391,1.746,1.746,0,0,0,.5,1.391,1.746,1.746,0,0,0,1.387.511,1.782,1.782,0,0,0,1.361-.573,1.783,1.783,0,0,0,.463-1.4,1.739,1.739,0,0,0-.5-1.349A1.739,1.739,0,0,0-541.691,835.844Zm.971,2.652a1.026,1.026,0,0,1-1.029.832,1.041,1.041,0,0,1-.995-.963,5.246,5.246,0,0,1-.056-.633,3.67,3.67,0,0,1,.085-.639c.156-.514.442-.928,1.049-.9a1.048,1.048,0,0,1,1,.966A2.528,2.528,0,0,1-540.72,838.5Z" transform="translate(-519.669 -302.519)" fill="#0d2d46"/><path d="M-846.136,835.841a1.867,1.867,0,0,0-2.427.754,2.015,2.015,0,0,0,.685,2.664,1.6,1.6,0,0,0,1.4.2,1.6,1.6,0,0,0,1.01-.987l-.47.316a1.242,1.242,0,0,1-1.321.189,1.242,1.242,0,0,1-.73-1.117c-.067-.49.062-.687.582-.634a7.684,7.684,0,0,0,1.285,0c.257-.017.631.169.75-.124a.909.909,0,0,0-.294-.892A1.666,1.666,0,0,0-846.136,835.841Zm-.05.826c-.054.5-.545.089-.8.263-.275-.162-.783.207-.824-.236s.4-.667.852-.672c.424,0,.82.21.775.645Z" transform="translate(-251.39 -302.354)" fill="#0d2d46"/><path d="M-671.247,835.724a1.886,1.886,0,0,0-2.254.932,2.021,2.021,0,0,0,.666,2.553,1.652,1.652,0,0,0,1.306.258,1.652,1.652,0,0,0,1.072-.788c-.528.138-.847.419-1.27.384a1.347,1.347,0,0,1-.9-.5,1.347,1.347,0,0,1-.282-.993c.075-.705.664-.25,1.008-.336a7.118,7.118,0,0,1,.9-.022c.253-.028.614.174.739-.134.116-.283-.1-.578-.264-.833A1.307,1.307,0,0,0-671.247,835.724Zm-1.545,1.124a.91.91,0,0,1,.322-.628.911.911,0,0,1,.675-.209c.507.018.729.343.781.838Z" transform="translate(-405.287 -302.337)" fill="#0d2d46"/><path d="M-742.751,825.21c.023-1.29.01-2.582.005-3.873,0-.208.067-.55-.3-.433a2.3,2.3,0,0,0-1.036.417c.666.274.667.274.668,1.021,0,.912-.021,1.823.008,2.733.017.548.017,1.045-.625,1.3h1.9C-742.772,826.174-742.757,825.715-742.751,825.21Z" transform="translate(-343.43 -289.368)" fill="#0d2d46"/><path d="M-638.188,835.87a1.344,1.344,0,0,0-1.069.269c-.109.072-.284.294-.365.128-.5-1.018-.881.134-1.344,0,.2.269.762.087.637.6-.209.866.573,1.967-.623,2.6a2.907,2.907,0,0,0,2.046-.085c-.773-.052-.789-.509-.746-1.013.021-.251,0-.506,0-.759,0-.994.321-1.252,1.284-1.018.263.067.476.034.537-.234S-637.94,835.928-638.188,835.87Z" transform="translate(-434.058 -302.518)" fill="#0d2d46"/><path d="M-813.161,835.837a1.373,1.373,0,0,0-1.066.278c-.113.074-.3.286-.374.134-.451-1.008-.836.04-1.289-.019,1.012.243.556,1.031.581,1.563.029.6.331,1.365-.639,1.671a6.171,6.171,0,0,0,2.161.038c-.82-.41-.821-.41-.826-1.115v-.757c0-1.037.306-1.289,1.308-1.062.269.061.477,0,.527-.257S-812.914,835.889-813.161,835.837Z" transform="translate(-280.265 -302.488)" fill="#0d2d46"/><path d="M-815.931,839.172l-.062-.015a.3.3,0,0,0,.062.015Z" transform="translate(-280.23 -305.431)" fill="#0d2d46"/><path d="M-788.062,829.621a7.984,7.984,0,0,0-.007-.986c-.075-.592.075-.924.75-.8.148.028.351.013.36-.177.01-.206-.2-.214-.341-.183-.76.164-.825-.272-.77-.849.011-.119.1-.315-.194-.367a1.86,1.86,0,0,1-1.359,1.458c.988.055.941.556.921,1.057-.017.48.012.961-.008,1.441s.126.873.622.991a1.269,1.269,0,0,0,1.464-.571C-788.007,830.942-788.062,830.894-788.062,829.621Z" transform="translate(-303.401 -294.096)" fill="#0d2d46"/><path d="M-541.2,722.8c-.3.348-.571.47-.873.018-.357-.537-.6-.211-.928.067-.417.354-.308.584.033.892.294.265.526.582.873.067.263-.389.541-.454.868-.032.116.15.253.455.524.285a9.779,9.779,0,0,0,.925-.76c-.371-.327-.62-.572-.9-.783S-541.077,722.657-541.2,722.8Z" transform="translate(-519.924 -202.882)" fill="#0d2d46"/><path d="M-794.293,722.535c-.29-.331-.449.044-.58.2-.308.361-.553.433-.882.02-.122-.153-.269-.537-.576-.234-.24.238-.7.436-.611.785.086.327.645.832.747.742.625-.543,1.148-.873,1.705.219.328-.375.689-.62.788-.944C-793.588,722.953-794.073,722.789-794.293,722.535Z" transform="translate(-296.961 -202.819)" fill="#0d2d46"/><path d="M-1084.008,838.463c.013-.708.007-1.417,0-2.125,0-.185.048-.494-.274-.384s-.739.092-1.008.439c.192.248.783,0,.64.55-.224.861.563,1.956-.731,2.671a4.31,4.31,0,0,0,2.047-.1C-1084.042,839.408-1084.017,838.942-1084.008,838.463Z" transform="translate(-43.465 -302.597)" fill="#0d2d46"/><path d="M-723.314,838.553c.032-.5.007-1.011.007-1.517,0-1.283,0-1.283-1.206-.753-.017.007-.021.044-.051.115.122.3.731-.026.6.486-.216.888.58,2-.665,2.717h1.925A.873.873,0,0,1-723.314,838.553Z" transform="translate(-360.531 -302.612)" fill="#0d2d46"/><path d="M-762.054,838.537c-.009-.68,0-1.36-.008-2.04,0-.178.067-.51-.236-.432-.357.092-.79.075-1.061.408.121.324.728-.009.619.493-.2.9.547,2.015-.672,2.761a4.864,4.864,0,0,0,2.07-.1C-762.208,839.578-762.048,839-762.054,838.537Z" transform="translate(-326.44 -302.703)" fill="#0d2d46"/><path d="M-390.995,735.584c-.192.269-.672.38-.568.793a.733.733,0,0,0,.528.554.733.733,0,0,0,.734-.218c.134-.134.256-.279.458-.5-.129,0-.259-.1-.4-.313a2.73,2.73,0,0,0-.263-.269C-390.657,735.458-390.825,735.349-390.995,735.584Z" transform="translate(-653.242 -214.283)" fill="#0d2d46"/><path d="M-377.22,741.387l-.04.044a.3.3,0,0,0,.073-.007Z" transform="translate(-665.828 -219.502)" fill="#0d2d46"/><path d="M-375.567,738.006c.208-.285.7-.441.594-.865a.7.7,0,0,0-.541-.552.7.7,0,0,0-.717.288.9.9,0,0,1-.421.321c.225.25.412.47.617.672C-375.909,737.991-375.766,738.279-375.567,738.006Z" transform="translate(-666.361 -215.274)" fill="#0d2d46"/><path d="M-1129.544,728.178c.6-.783,1.15-.642,1.706.027.269-.262.675-.482.773-.8.107-.343-.367-.547-.611-.777-.3-.283-.449.1-.579.255-.308.363-.537.363-.839-.005-.12-.147-.249-.458-.523-.29a7.991,7.991,0,0,0-.825.664A3.843,3.843,0,0,0-1129.544,728.178Z" transform="translate(-3.863 -206.444)" fill="#0d2d46"/><path d="M-749.186,793.12c-.253-.182-.386.052-.49.193-.344.464-.645.464-.987,0-.4-.547-.6-.022-.873.177-.455.336-.179.562.085.83s.5.532.818.067c.3-.44.6-.444.931-.015.116.148.265.459.537.208a2.283,2.283,0,0,0,.72-.9C-748.664,793.512-748.921,793.31-749.186,793.12Z" transform="translate(-336.662 -264.91)" fill="#0d2d46"/><path d="M-683.16,794.309c.367.531.589.124.878-.109.385-.311.322-.537-.015-.838-.3-.269-.542-.568-.885-.067-.283.412-.56.4-.877.009-.134-.163-.308-.518-.589-.194-.211.245-.717.382-.537.8a1.6,1.6,0,0,0,.84.749c.079-.1.176-.217.262-.336C-683.778,793.879-683.471,793.861-683.16,794.309Z" transform="translate(-395.159 -264.843)" fill="#0d2d46"/><path d="M-917.975,706.186l1.172-.3a1.111,1.111,0,0,1,.144-.044.392.392,0,0,0,.392-.387c-.007-.324-.293-.166-.461-.2-.21-.041-.529.054-.58-.21-.062-.323.248-.3.47-.316.165-.015.306-.091.265-.283s-.218-.176-.368-.175c-.49,0-1.2.822-.918,1.137C-917.475,705.839-918.069,705.865-917.975,706.186Z" transform="translate(-190.588 -186.877)" fill="#0d2d46"/><path d="M-708.694,793.955c-.034-.34-.441-.787-.794-.758a.922.922,0,0,0-.764.806c.023.353.461.613.83.862C-709.176,794.542-708.655,794.346-708.694,793.955Z" transform="translate(-373.161 -265.036)" fill="#0d2d46"/><path d="M-382.39,720.63a.89.89,0,0,0,.793-.774c.024-.388-.461-.594-.784-.934-.3.321-.762.6-.786.9C-383.193,720.161-382.728,720.6-382.39,720.63Z" transform="translate(-660.633 -199.758)" fill="#0d2d46"/><path d="M-757.6,822.2a.382.382,0,0,0-.117-.307.382.382,0,0,0-.312-.1.374.374,0,0,0-.309.115.374.374,0,0,0-.1.315c.011.255.148.418.5.408a.376.376,0,0,0,.259-.143.376.376,0,0,0,.075-.286Z" transform="translate(-330.816 -290.171)" fill="#0d2d46"/><path d="M-719.08,822.22a.415.415,0,0,0-.1-.321.415.415,0,0,0-.306-.14.4.4,0,0,0-.322.09.4.4,0,0,0-.139.3.393.393,0,0,0,.1.317.394.394,0,0,0,.306.13.412.412,0,0,0,.315-.09.412.412,0,0,0,.15-.29Z" transform="translate(-364.639 -290.137)" fill="#0d2d46"/><path d="M-1080.2,822.122a.394.394,0,0,0,.122.309.4.4,0,0,0,.315.106.39.39,0,0,0,.312-.112.391.391,0,0,0,.114-.311c0-.277-.188-.387-.439-.431C-1080.025,821.724-1080.206,821.857-1080.2,822.122Z" transform="translate(-48.02 -290.075)" fill="#0d2d46"/><path d="M-1123.3,517.953a1.942,1.942,0,0,0-.6-1.462,1.942,1.942,0,0,0-1.489-.531q-1.973-.019-3.948-.029c-.988-.005-.993,0-.981-.961l.079-11.059.006-.879.042-5.906v-.942h-4.641v7.725h0v15.309a1.452,1.452,0,0,0,.374.038c3.292,0,6.578.04,9.866.063C-1123.225,519.329-1123.224,519.323-1123.3,517.953Zm-6.892-20.825c-.18-.6-.708-.575-2.195-.511,1.487-.066,2.012-.086,2.195.508Z" transform="translate(0 -3.995)" fill="#0d2d46"/></g></svg>