<svg width="40" height="51" viewBox="0 0 40 51" fill="none" xmlns="http://www.w3.org/2000/svg">
<path d="M0 32.223C0.021 30.312 -0.119 26.203 5.459 18.375C11.037 10.547 18.83 0 18.83 0C18.83 0 22.975 4.235 23.318 8.736C23.661 13.237 22.633 16.467 18.918 22.336C12.637 32.254 4.778 41.772 10.931 49.077C7.78983 47.4774 5.1256 45.0784 3.2066 42.1215C1.28761 39.1646 0.181617 35.7543 0 32.234" fill="#EAA627"/>
<path d="M27.454 17.4021C26.3939 20.1364 25.0368 22.746 23.407 25.1841C22.58 26.4891 21.729 27.7841 20.907 29.0391C16.84 35.2341 14.14 39.4871 14.293 43.4131C14.2557 44.7948 14.6572 46.1528 15.44 47.2921C16.441 48.7287 17.8549 49.8271 19.4943 50.4418C21.1338 51.0565 22.9214 51.1584 24.62 50.7341C28.672 49.78 32.3272 47.59 35.0796 44.467C37.832 41.3441 39.5456 37.4428 39.983 33.3031C39.983 33.3031 33.348 42.3031 30.657 40.3931C27.722 38.3121 32.712 34.2771 34.766 28.1121C36.635 22.5041 34.553 17.6841 27.938 11.3311C27.938 11.3311 28.313 15.3091 27.452 17.4021" fill="#EAA627"/>
</svg>
