<svg width="273" height="273" viewBox="0 0 273 273" fill="none" xmlns="http://www.w3.org/2000/svg">
<g clip-path="url(#clip0_2_2)">
<path fill-rule="evenodd" clip-rule="evenodd" d="M130.674 52.0995C143.221 41.7562 164.533 43.7942 174.653 56.5715C186.255 43.3342 207.114 42.5165 220.191 54.0161C232.969 67.7581 230.477 76.715 231.199 98.1872H214.397L214.346 83.5508C214.256 58.5009 184.792 58.2645 184.792 83.5508V98.1681H165.543L165.671 82.9056C165.875 57.8557 134.615 57.7981 134.628 83.1036V98.1681H118.107C118.107 71.2463 119.57 61.2544 130.667 52.0931" fill="#D19563"/>
<path d="M169.063 179.56C169.073 180.084 168.964 180.604 168.744 181.08C168.535 181.502 168.236 181.873 167.868 182.166C167.486 182.457 167.053 182.674 166.591 182.805C166.078 182.954 165.546 183.027 165.013 183.022C164.36 183.031 163.711 182.923 163.096 182.703C162.874 182.63 162.661 182.536 162.457 182.422C162.328 182.352 162.207 182.266 162.099 182.166C162.019 182.076 161.966 181.965 161.946 181.847C161.908 181.651 161.89 181.452 161.895 181.253C161.887 181.106 161.887 180.959 161.895 180.812C161.904 180.714 161.923 180.618 161.952 180.524C161.97 180.464 162.006 180.41 162.055 180.371C162.097 180.339 162.149 180.323 162.202 180.326C162.323 180.34 162.439 180.389 162.534 180.467C162.683 180.556 162.868 180.658 163.09 180.773C163.35 180.901 163.621 181.004 163.901 181.08C164.254 181.18 164.62 181.227 164.987 181.221C165.233 181.226 165.478 181.196 165.715 181.131C165.913 181.072 166.099 180.979 166.265 180.856C166.414 180.74 166.532 180.588 166.61 180.416C166.688 180.234 166.727 180.038 166.725 179.841C166.733 179.611 166.663 179.386 166.527 179.202C166.381 179.013 166.201 178.852 165.996 178.729C165.76 178.58 165.512 178.45 165.255 178.339L164.399 177.956C164.105 177.817 163.819 177.661 163.543 177.49C163.265 177.315 163.015 177.1 162.802 176.851C162.577 176.601 162.397 176.313 162.272 176.001C162.128 175.626 162.059 175.227 162.067 174.826C162.06 174.347 162.161 173.873 162.361 173.439C162.546 173.056 162.814 172.72 163.147 172.455C163.492 172.185 163.887 171.985 164.31 171.868C164.773 171.735 165.253 171.67 165.734 171.676C165.995 171.676 166.256 171.695 166.514 171.733C166.761 171.767 167.004 171.821 167.242 171.893C167.448 171.954 167.649 172.031 167.843 172.123C167.967 172.176 168.084 172.247 168.188 172.334C168.233 172.375 168.271 172.422 168.303 172.475C168.326 172.525 168.344 172.579 168.354 172.634C168.359 172.715 168.359 172.796 168.354 172.877C168.354 172.979 168.354 173.101 168.354 173.248C168.354 173.394 168.354 173.548 168.354 173.656C168.348 173.751 168.333 173.846 168.309 173.938C168.295 173.997 168.266 174.052 168.226 174.097C168.184 174.131 168.133 174.149 168.079 174.148C167.972 174.132 167.869 174.093 167.779 174.033C167.645 173.95 167.479 173.867 167.281 173.771C167.059 173.671 166.831 173.587 166.597 173.522C166.319 173.44 166.03 173.401 165.741 173.407C165.524 173.401 165.308 173.431 165.102 173.497C164.936 173.547 164.782 173.63 164.648 173.739C164.529 173.841 164.436 173.97 164.38 174.116C164.319 174.262 164.288 174.419 164.291 174.576C164.283 174.806 164.353 175.031 164.489 175.215C164.636 175.405 164.815 175.567 165.019 175.694C165.264 175.839 165.518 175.967 165.779 176.078L166.642 176.461C166.939 176.595 167.227 176.749 167.504 176.921C167.784 177.1 168.04 177.315 168.264 177.56C168.488 177.811 168.668 178.098 168.795 178.41C168.94 178.771 169.01 179.158 168.999 179.547" fill="#727271"/>
<path d="M174.979 179.349H174.174C173.878 179.344 173.583 179.37 173.292 179.425C173.083 179.464 172.884 179.542 172.705 179.655C172.562 179.743 172.447 179.869 172.372 180.02C172.296 180.174 172.259 180.345 172.264 180.518C172.257 180.656 172.28 180.793 172.332 180.921C172.384 181.049 172.463 181.165 172.564 181.259C172.795 181.455 173.092 181.554 173.394 181.534C173.685 181.535 173.971 181.456 174.219 181.304C174.502 181.129 174.758 180.914 174.979 180.665V179.349ZM177.081 182.588C177.081 182.623 177.073 182.659 177.058 182.691C177.042 182.723 177.02 182.751 176.991 182.773C176.911 182.826 176.819 182.859 176.723 182.869C176.544 182.882 176.365 182.882 176.186 182.869C176.001 182.883 175.816 182.883 175.631 182.869C175.542 182.861 175.458 182.828 175.388 182.773C175.362 182.75 175.342 182.721 175.329 182.689C175.316 182.657 175.31 182.622 175.311 182.588V182.006C175.013 182.332 174.652 182.595 174.251 182.779C173.836 182.968 173.384 183.062 172.928 183.054C172.556 183.058 172.186 183.006 171.829 182.901C171.511 182.807 171.215 182.648 170.96 182.434C170.712 182.23 170.515 181.969 170.385 181.674C170.247 181.336 170.179 180.973 170.187 180.607C170.177 180.209 170.264 179.814 170.443 179.457C170.623 179.126 170.888 178.849 171.21 178.652C171.605 178.423 172.037 178.266 172.487 178.186C173.069 178.077 173.659 178.025 174.251 178.033H174.979V177.534C174.985 177.319 174.962 177.104 174.909 176.895C174.868 176.731 174.787 176.58 174.672 176.455C174.552 176.328 174.4 176.238 174.231 176.193C174.011 176.131 173.783 176.103 173.554 176.11C173.235 176.105 172.917 176.144 172.609 176.225C172.355 176.292 172.107 176.38 171.868 176.487C171.657 176.582 171.478 176.672 171.331 176.749C171.224 176.814 171.104 176.856 170.98 176.87C170.921 176.871 170.864 176.851 170.82 176.812C170.767 176.764 170.726 176.706 170.698 176.64C170.662 176.554 170.639 176.464 170.628 176.372C170.618 176.255 170.618 176.137 170.628 176.02C170.625 175.879 170.637 175.737 170.667 175.599C170.697 175.497 170.752 175.405 170.826 175.33C170.95 175.219 171.09 175.126 171.242 175.056C171.467 174.949 171.699 174.859 171.938 174.787C172.219 174.694 172.508 174.623 172.8 174.576C173.121 174.52 173.446 174.492 173.771 174.493C174.284 174.484 174.795 174.542 175.292 174.666C175.671 174.768 176.024 174.951 176.327 175.202C176.602 175.455 176.807 175.774 176.921 176.129C177.052 176.564 177.114 177.016 177.106 177.47L177.081 182.588Z" fill="#727271"/>
<path d="M184.032 175.714C184.032 175.918 184.032 176.084 184.032 176.212C184.028 176.315 184.013 176.418 183.987 176.519C183.968 176.575 183.938 176.628 183.897 176.672C183.856 176.699 183.807 176.712 183.757 176.71C183.706 176.718 183.654 176.718 183.604 176.71L183.412 176.646L183.182 176.582C183.09 176.561 182.995 176.551 182.901 176.55C182.778 176.552 182.657 176.576 182.543 176.621C182.409 176.679 182.284 176.757 182.173 176.851C182.03 176.974 181.897 177.108 181.776 177.253C181.615 177.457 181.466 177.671 181.329 177.892V182.601C181.331 182.654 181.313 182.706 181.278 182.747C181.232 182.799 181.172 182.837 181.106 182.856C181.001 182.885 180.894 182.907 180.786 182.92C180.646 182.92 180.473 182.92 180.269 182.92C180.064 182.92 179.892 182.92 179.751 182.92C179.641 182.907 179.532 182.885 179.425 182.856C179.359 182.837 179.299 182.799 179.253 182.747C179.221 182.705 179.203 182.654 179.202 182.601V175.011C179.2 174.958 179.216 174.907 179.246 174.864C179.283 174.814 179.335 174.776 179.393 174.755C179.487 174.724 179.583 174.702 179.681 174.691C179.826 174.684 179.971 174.684 180.115 174.691C180.264 174.684 180.414 174.684 180.563 174.691C180.656 174.701 180.749 174.722 180.837 174.755C180.893 174.779 180.941 174.816 180.978 174.864C181.006 174.908 181.021 174.959 181.023 175.011V175.95C181.19 175.704 181.376 175.471 181.578 175.254C181.731 175.094 181.898 174.948 182.077 174.819C182.223 174.719 182.385 174.643 182.556 174.596C182.71 174.555 182.869 174.534 183.029 174.532H183.265L183.527 174.576L183.763 174.64C183.856 174.667 183.934 174.729 183.98 174.813C183.996 174.861 184.009 174.91 184.019 174.96C184.019 175.017 184.019 175.107 184.019 175.222C184.019 175.337 184.019 175.503 184.019 175.701" fill="#727271"/>
<path d="M187.641 172.423C187.66 172.581 187.646 172.742 187.601 172.894C187.556 173.047 187.48 173.189 187.379 173.311C187.094 173.508 186.746 173.594 186.402 173.554C186.062 173.595 185.719 173.511 185.437 173.318C185.339 173.201 185.266 173.065 185.222 172.919C185.178 172.773 185.164 172.62 185.182 172.468C185.151 172.146 185.245 171.824 185.443 171.567C185.731 171.374 186.077 171.288 186.421 171.325C186.763 171.285 187.108 171.372 187.392 171.567C187.488 171.686 187.56 171.823 187.603 171.97C187.646 172.117 187.659 172.271 187.641 172.423ZM187.469 182.537C187.467 182.59 187.449 182.641 187.418 182.684C187.372 182.735 187.312 182.773 187.245 182.792C187.138 182.821 187.029 182.843 186.919 182.856C186.787 182.856 186.615 182.856 186.402 182.856C186.197 182.856 186.025 182.856 185.891 182.856C185.781 182.843 185.672 182.821 185.565 182.792C185.498 182.773 185.438 182.735 185.392 182.684C185.358 182.643 185.34 182.59 185.341 182.537V175.03C185.339 175.003 185.343 174.977 185.352 174.951C185.361 174.926 185.374 174.903 185.392 174.883C185.438 174.829 185.498 174.789 185.565 174.768C185.671 174.733 185.78 174.71 185.891 174.698C186.061 174.686 186.232 174.686 186.402 174.698C186.574 174.686 186.747 174.686 186.919 174.698C187.03 174.71 187.139 174.733 187.245 174.768C187.312 174.789 187.372 174.829 187.418 174.883C187.451 174.925 187.469 174.977 187.469 175.03V182.537Z" fill="#727271"/>
<path d="M194.445 175.714C194.445 175.918 194.445 176.084 194.445 176.212C194.44 176.316 194.423 176.419 194.394 176.519C194.381 176.578 194.349 176.631 194.305 176.672C194.263 176.7 194.214 176.713 194.164 176.71C194.113 176.718 194.061 176.718 194.011 176.71C193.949 176.682 193.885 176.661 193.819 176.646C193.744 176.62 193.667 176.598 193.589 176.582C193.499 176.562 193.407 176.551 193.314 176.55C193.192 176.552 193.07 176.575 192.957 176.621C192.822 176.678 192.697 176.755 192.586 176.851C192.44 176.97 192.307 177.105 192.19 177.253C192.029 177.457 191.879 177.671 191.743 177.892V182.601C191.741 182.654 191.723 182.705 191.692 182.747C191.646 182.799 191.586 182.837 191.519 182.856C191.412 182.885 191.303 182.907 191.193 182.92C191.057 182.92 190.884 182.92 190.676 182.92C190.471 182.92 190.299 182.92 190.165 182.92C190.055 182.907 189.946 182.885 189.839 182.856C189.772 182.837 189.712 182.799 189.666 182.747C189.632 182.706 189.614 182.654 189.615 182.601V175.011C189.613 174.958 189.629 174.907 189.66 174.864C189.697 174.814 189.748 174.776 189.807 174.755C189.898 174.724 189.992 174.702 190.088 174.691C190.233 174.684 190.378 174.684 190.522 174.691C190.674 174.684 190.825 174.684 190.976 174.691C191.07 174.701 191.162 174.722 191.251 174.755C191.306 174.779 191.354 174.816 191.391 174.864C191.417 174.908 191.431 174.959 191.43 175.011V175.95C191.599 175.704 191.787 175.471 191.992 175.254C192.143 175.092 192.31 174.947 192.49 174.819C192.634 174.719 192.794 174.643 192.963 174.596C193.117 174.556 193.276 174.534 193.436 174.532H193.672L193.94 174.576L194.177 174.64C194.231 174.658 194.28 174.687 194.324 174.723C194.35 174.749 194.371 174.78 194.388 174.813C194.409 174.859 194.422 174.909 194.426 174.96C194.435 175.047 194.435 175.135 194.426 175.222C194.426 175.343 194.426 175.503 194.426 175.701" fill="#727271"/>
<path d="M207.286 177.362C207.291 176.835 207.246 176.309 207.152 175.79C207.079 175.362 206.922 174.952 206.692 174.583C206.477 174.25 206.177 173.981 205.823 173.803C205.401 173.609 204.94 173.515 204.475 173.529C204 173.51 203.528 173.618 203.108 173.842C202.749 174.039 202.444 174.322 202.22 174.666C201.986 175.032 201.823 175.44 201.741 175.867C201.65 176.349 201.605 176.839 201.607 177.33C201.602 177.87 201.647 178.408 201.741 178.94C201.815 179.371 201.969 179.785 202.195 180.16C202.407 180.492 202.705 180.762 203.057 180.939C203.485 181.127 203.95 181.217 204.418 181.201C204.89 181.219 205.359 181.113 205.779 180.895C206.141 180.699 206.448 180.416 206.673 180.071C206.907 179.695 207.067 179.279 207.146 178.844C207.243 178.356 207.29 177.859 207.286 177.362ZM209.625 177.247C209.635 178.071 209.521 178.891 209.286 179.681C209.085 180.354 208.741 180.975 208.277 181.502C207.824 182.007 207.26 182.399 206.628 182.645C205.9 182.919 205.126 183.051 204.348 183.035C203.593 183.051 202.841 182.938 202.124 182.703C201.519 182.499 200.973 182.15 200.534 181.687C200.088 181.185 199.762 180.589 199.582 179.943C199.357 179.127 199.252 178.284 199.269 177.439C199.255 176.631 199.37 175.827 199.607 175.056C199.807 174.388 200.149 173.771 200.61 173.248C201.067 172.746 201.633 172.357 202.265 172.11C202.994 171.831 203.771 171.697 204.552 171.714C205.295 171.701 206.036 171.811 206.743 172.04C207.35 172.241 207.897 172.59 208.334 173.056C208.784 173.549 209.114 174.139 209.299 174.781C209.53 175.582 209.64 176.413 209.625 177.247Z" fill="#727271"/>
<path d="M213.681 172.423C213.7 172.581 213.686 172.742 213.641 172.894C213.596 173.047 213.521 173.189 213.419 173.311C213.119 173.469 212.784 173.551 212.445 173.551C212.106 173.551 211.772 173.469 211.471 173.311C211.376 173.193 211.305 173.057 211.262 172.911C211.219 172.766 211.205 172.613 211.222 172.462C211.192 172.139 211.285 171.817 211.484 171.561C211.77 171.366 212.117 171.28 212.461 171.318C212.802 171.278 213.145 171.364 213.426 171.561C213.525 171.679 213.598 171.815 213.642 171.963C213.686 172.11 213.7 172.264 213.681 172.417M213.509 182.53C213.508 182.583 213.49 182.635 213.458 182.677C213.412 182.729 213.352 182.767 213.285 182.786C213.178 182.815 213.069 182.836 212.959 182.85C212.827 182.85 212.655 182.85 212.442 182.85C212.229 182.85 212.056 182.85 211.924 182.85C211.817 182.837 211.71 182.815 211.605 182.786C211.538 182.767 211.479 182.729 211.433 182.677C211.398 182.636 211.38 182.584 211.381 182.53V175.03C211.38 175.003 211.383 174.977 211.392 174.951C211.401 174.926 211.415 174.903 211.433 174.883C211.478 174.829 211.538 174.789 211.605 174.768C211.709 174.733 211.816 174.71 211.924 174.698C212.097 174.687 212.27 174.687 212.442 174.698C212.614 174.686 212.787 174.686 212.959 174.698C213.07 174.71 213.179 174.733 213.285 174.768C213.353 174.789 213.412 174.829 213.458 174.883C213.491 174.925 213.509 174.977 213.509 175.03V182.53Z" fill="#727271"/>
<path d="M217.783 182.562C217.782 182.615 217.764 182.667 217.732 182.709C217.686 182.761 217.626 182.799 217.559 182.818C217.452 182.847 217.343 182.868 217.233 182.882C217.097 182.882 216.925 182.882 216.716 182.882C216.507 182.882 216.335 182.882 216.198 182.882C216.091 182.868 215.984 182.847 215.879 182.818C215.812 182.799 215.753 182.761 215.707 182.709C215.672 182.668 215.654 182.616 215.655 182.562V171.433C215.653 171.377 215.671 171.323 215.707 171.28C215.743 171.218 215.8 171.171 215.866 171.146C215.97 171.108 216.077 171.082 216.186 171.069C216.326 171.069 216.499 171.069 216.703 171.069C216.908 171.069 217.087 171.069 217.221 171.069C217.332 171.083 217.441 171.108 217.546 171.146C217.614 171.162 217.675 171.2 217.719 171.254C217.752 171.299 217.77 171.352 217.77 171.408L217.783 182.562Z" fill="#727271"/>
<path d="M147.961 192.056C147.965 191.531 147.921 191.007 147.827 190.491C147.755 190.062 147.598 189.651 147.367 189.283C147.154 188.949 146.853 188.68 146.498 188.504C146.077 188.306 145.615 188.212 145.15 188.229C144.676 188.212 144.205 188.317 143.783 188.536C143.425 188.735 143.121 189.018 142.895 189.36C142.662 189.729 142.499 190.138 142.416 190.567C142.325 191.047 142.28 191.535 142.282 192.024C142.277 192.563 142.321 193.102 142.416 193.634C142.489 194.067 142.643 194.483 142.869 194.86C143.079 195.194 143.378 195.462 143.732 195.633C144.159 195.827 144.625 195.919 145.093 195.902C145.565 195.919 146.034 195.813 146.454 195.595C146.816 195.397 147.124 195.112 147.348 194.765C147.582 194.392 147.742 193.977 147.821 193.544C147.918 193.054 147.965 192.555 147.961 192.056ZM150.299 191.947C150.31 192.771 150.196 193.592 149.961 194.381C149.76 195.054 149.416 195.675 148.951 196.202C148.498 196.705 147.933 197.097 147.303 197.346C146.575 197.619 145.801 197.751 145.022 197.735C144.268 197.748 143.517 197.636 142.799 197.403C142.192 197.201 141.645 196.849 141.208 196.381C140.762 195.883 140.436 195.288 140.257 194.643C140.033 193.828 139.927 192.984 139.943 192.139C139.931 191.33 140.045 190.523 140.282 189.749C140.484 189.084 140.826 188.47 141.285 187.948C141.741 187.445 142.308 187.053 142.94 186.804C143.67 186.528 144.446 186.394 145.227 186.408C145.971 186.394 146.712 186.506 147.418 186.74C148.025 186.941 148.572 187.29 149.009 187.756C149.459 188.25 149.789 188.84 149.974 189.481C150.205 190.282 150.315 191.113 150.299 191.947Z" fill="#727271"/>
<path d="M157.423 193.506C157.423 193.198 157.399 192.89 157.353 192.586C157.307 192.312 157.223 192.045 157.103 191.794C157.001 191.575 156.845 191.386 156.65 191.244C156.444 191.101 156.197 191.029 155.947 191.04C155.804 191.039 155.662 191.061 155.525 191.104C155.377 191.15 155.237 191.219 155.11 191.308C154.949 191.416 154.799 191.54 154.663 191.679C154.49 191.854 154.33 192.042 154.184 192.241V194.726C154.429 195.051 154.715 195.343 155.033 195.595C155.272 195.79 155.569 195.898 155.877 195.902C156.128 195.914 156.376 195.839 156.58 195.691C156.779 195.547 156.943 195.359 157.059 195.141C157.187 194.898 157.28 194.638 157.333 194.368C157.392 194.085 157.422 193.796 157.423 193.506ZM159.64 193.359C159.648 193.971 159.575 194.581 159.422 195.173C159.3 195.668 159.083 196.135 158.784 196.547C158.521 196.919 158.169 197.22 157.761 197.422C157.319 197.627 156.837 197.73 156.35 197.722C156.135 197.728 155.92 197.707 155.711 197.659C155.528 197.614 155.35 197.55 155.18 197.467C155.001 197.374 154.83 197.265 154.669 197.141C154.503 197.007 154.324 196.854 154.145 196.681V200.233C154.145 200.288 154.127 200.342 154.094 200.387C154.049 200.441 153.989 200.48 153.922 200.502C153.816 200.536 153.707 200.56 153.596 200.572C153.424 200.583 153.251 200.583 153.079 200.572C152.906 200.583 152.733 200.583 152.561 200.572C152.452 200.56 152.345 200.537 152.242 200.502C152.174 200.48 152.115 200.441 152.069 200.387C152.034 200.344 152.015 200.289 152.018 200.233V189.711C152.016 189.659 152.029 189.608 152.056 189.564C152.091 189.512 152.143 189.473 152.203 189.456C152.294 189.423 152.389 189.402 152.484 189.392C152.629 189.384 152.774 189.384 152.919 189.392C153.061 189.384 153.204 189.384 153.347 189.392C153.443 189.402 153.537 189.423 153.628 189.456C153.686 189.477 153.737 189.515 153.775 189.564C153.802 189.608 153.815 189.659 153.813 189.711V190.599C154.015 190.389 154.228 190.191 154.452 190.005C154.65 189.841 154.864 189.698 155.091 189.577C155.308 189.463 155.537 189.375 155.775 189.315C156.02 189.26 156.271 189.233 156.522 189.232C157.013 189.218 157.499 189.33 157.934 189.558C158.321 189.772 158.648 190.08 158.886 190.452C159.141 190.856 159.322 191.301 159.422 191.768C159.554 192.293 159.629 192.831 159.646 193.372L159.64 193.359Z" fill="#727271"/>
<path d="M166.246 192.663C166.291 192.165 166.165 191.667 165.888 191.251C165.746 191.076 165.564 190.938 165.357 190.849C165.15 190.76 164.924 190.722 164.7 190.74C164.454 190.733 164.211 190.786 163.99 190.893C163.795 190.989 163.625 191.129 163.492 191.302C163.354 191.484 163.25 191.689 163.185 191.909C163.115 192.154 163.074 192.407 163.064 192.663H166.246ZM168.309 193.27C168.325 193.476 168.263 193.681 168.137 193.845C168.074 193.907 167.999 193.956 167.916 193.987C167.834 194.019 167.746 194.034 167.657 194.03H163.064C163.061 194.323 163.099 194.616 163.179 194.899C163.248 195.136 163.371 195.355 163.537 195.538C163.712 195.726 163.932 195.869 164.176 195.953C164.478 196.056 164.796 196.106 165.115 196.1C165.445 196.105 165.774 196.077 166.099 196.017C166.345 195.975 166.589 195.915 166.827 195.838C167.031 195.774 167.204 195.716 167.338 195.659C167.444 195.615 167.556 195.589 167.67 195.582C167.712 195.571 167.756 195.571 167.798 195.582C167.837 195.609 167.866 195.647 167.881 195.691C167.906 195.759 167.921 195.83 167.926 195.902C167.933 196.019 167.933 196.136 167.926 196.253C167.926 196.374 167.926 196.483 167.926 196.573C167.93 196.645 167.93 196.717 167.926 196.79C167.917 196.845 167.9 196.899 167.875 196.949C167.851 196.994 167.821 197.035 167.785 197.071C167.695 197.142 167.593 197.198 167.485 197.237C167.276 197.316 167.063 197.383 166.846 197.435C166.22 197.596 165.576 197.68 164.929 197.684C164.332 197.696 163.736 197.61 163.166 197.429C162.684 197.281 162.246 197.018 161.889 196.662C161.54 196.301 161.282 195.863 161.135 195.384C160.958 194.787 160.874 194.167 160.885 193.544C160.875 192.929 160.964 192.317 161.147 191.73C161.302 191.226 161.561 190.76 161.908 190.363C162.238 189.985 162.655 189.691 163.122 189.507C164.164 189.119 165.311 189.119 166.354 189.507C166.779 189.672 167.158 189.937 167.459 190.28C167.755 190.618 167.973 191.017 168.098 191.449C168.24 191.928 168.309 192.425 168.303 192.925L168.309 193.27Z" fill="#727271"/>
<path d="M174.915 190.414C174.915 190.612 174.915 190.784 174.915 190.912C174.906 191.013 174.889 191.114 174.864 191.212C174.849 191.271 174.818 191.324 174.774 191.366C174.735 191.398 174.685 191.414 174.634 191.41C174.581 191.408 174.53 191.397 174.481 191.379L174.289 191.315L174.059 191.251C173.965 191.241 173.871 191.241 173.778 191.251C173.655 191.249 173.533 191.273 173.42 191.321C173.289 191.379 173.167 191.455 173.056 191.545C172.908 191.666 172.773 191.803 172.653 191.954C172.495 192.158 172.348 192.372 172.213 192.592V197.294C172.212 197.35 172.194 197.403 172.161 197.448C172.113 197.499 172.051 197.534 171.983 197.55C171.879 197.583 171.772 197.604 171.663 197.614C171.529 197.614 171.35 197.614 171.146 197.614C170.941 197.614 170.762 197.614 170.628 197.614C170.518 197.604 170.409 197.582 170.302 197.55C170.236 197.533 170.177 197.497 170.13 197.448C170.097 197.403 170.079 197.35 170.079 197.294V189.711C170.078 189.652 170.098 189.595 170.134 189.549C170.17 189.503 170.22 189.47 170.277 189.456C170.368 189.423 170.462 189.402 170.558 189.392C170.703 189.384 170.848 189.384 170.992 189.392C171.141 189.384 171.291 189.384 171.44 189.392C171.534 189.4 171.626 189.422 171.714 189.456C171.772 189.476 171.821 189.514 171.855 189.564C171.887 189.606 171.902 189.658 171.9 189.711V190.65C172.067 190.405 172.253 190.172 172.455 189.954C172.606 189.792 172.773 189.647 172.954 189.519C173.099 189.417 173.261 189.341 173.433 189.296C173.587 189.252 173.746 189.231 173.906 189.232C173.984 189.226 174.063 189.226 174.142 189.232C174.231 189.238 174.318 189.253 174.404 189.277C174.484 189.292 174.563 189.313 174.64 189.341C174.697 189.357 174.749 189.386 174.794 189.424C174.82 189.449 174.842 189.479 174.857 189.513C174.873 189.559 174.886 189.606 174.896 189.654C174.902 189.743 174.902 189.833 174.896 189.922C174.896 190.037 174.896 190.197 174.896 190.401" fill="#727271"/>
<path d="M180.173 194.049H179.361C179.068 194.046 178.775 194.069 178.486 194.119C178.274 194.157 178.072 194.237 177.892 194.356C177.748 194.442 177.633 194.569 177.56 194.72C177.486 194.873 177.449 195.042 177.451 195.212C177.444 195.351 177.467 195.489 177.519 195.619C177.571 195.748 177.65 195.864 177.752 195.959C177.988 196.149 178.286 196.245 178.588 196.228C178.876 196.228 179.159 196.151 179.406 196.004C179.694 195.82 179.952 195.594 180.173 195.333V194.049ZM182.268 197.288C182.27 197.322 182.263 197.357 182.249 197.388C182.235 197.419 182.213 197.446 182.185 197.467C182.107 197.525 182.014 197.561 181.917 197.569C181.554 197.603 181.188 197.603 180.824 197.569C180.733 197.561 180.646 197.525 180.575 197.467C180.552 197.443 180.534 197.416 180.522 197.385C180.51 197.354 180.504 197.321 180.505 197.288V196.7C180.204 197.023 179.844 197.286 179.445 197.473C179.029 197.662 178.578 197.755 178.122 197.748C177.748 197.752 177.376 197.7 177.017 197.595C176.701 197.495 176.406 197.337 176.148 197.128C175.903 196.919 175.709 196.657 175.579 196.362C175.438 196.024 175.368 195.661 175.375 195.295C175.362 194.898 175.446 194.503 175.618 194.145C175.799 193.812 176.066 193.534 176.391 193.34C176.785 193.109 177.218 192.952 177.668 192.873C178.25 192.764 178.84 192.713 179.432 192.72H180.166V192.228C180.17 192.013 180.146 191.799 180.096 191.589C180.056 191.423 179.974 191.269 179.86 191.142C179.74 191.048 179.6 190.982 179.451 190.951C179.23 190.892 179.002 190.864 178.774 190.867C178.452 190.862 178.132 190.903 177.822 190.989C177.57 191.056 177.325 191.144 177.087 191.251C176.87 191.347 176.691 191.436 176.55 191.513C176.444 191.577 176.323 191.617 176.199 191.628C176.139 191.629 176.08 191.609 176.033 191.57C175.979 191.527 175.939 191.47 175.918 191.404C175.882 191.316 175.857 191.224 175.841 191.129C175.834 191.012 175.834 190.895 175.841 190.778C175.836 190.638 175.851 190.498 175.886 190.363C175.915 190.259 175.97 190.165 176.046 190.088C176.168 189.975 176.308 189.885 176.461 189.82C176.684 189.712 176.915 189.62 177.151 189.545C177.436 189.457 177.726 189.389 178.02 189.341C178.34 189.284 178.665 189.256 178.991 189.258C179.501 189.248 180.01 189.306 180.505 189.43C180.888 189.525 181.242 189.708 181.54 189.967C181.821 190.214 182.026 190.535 182.134 190.893C182.268 191.327 182.331 191.78 182.319 192.235L182.268 197.288Z" fill="#727271"/>
<path d="M192.388 187.162C192.406 187.32 192.393 187.48 192.348 187.633C192.303 187.785 192.227 187.927 192.126 188.05C191.841 188.248 191.494 188.337 191.149 188.299C190.807 188.336 190.464 188.252 190.177 188.063C189.985 187.822 189.895 187.514 189.928 187.207C189.895 186.886 189.989 186.564 190.19 186.312C190.485 186.155 190.814 186.073 191.149 186.073C191.483 186.073 191.812 186.155 192.107 186.312C192.205 186.43 192.279 186.567 192.323 186.714C192.367 186.861 192.38 187.016 192.362 187.168M191.589 189.424C191.673 189.405 191.759 189.408 191.841 189.43C191.923 189.452 191.999 189.494 192.062 189.551C192.124 189.609 192.172 189.681 192.201 189.761C192.23 189.841 192.239 189.927 192.228 190.011V197.256C192.228 197.311 192.21 197.365 192.177 197.409C192.13 197.459 192.071 197.494 192.005 197.512C191.899 197.545 191.79 197.567 191.679 197.576C191.538 197.576 191.372 197.576 191.168 197.576C190.963 197.576 190.784 197.576 190.644 197.576C190.533 197.567 190.424 197.545 190.318 197.512C190.252 197.494 190.192 197.459 190.146 197.409C190.113 197.365 190.095 197.311 190.094 197.256V191.155H186.721V194.701C186.701 195.021 186.767 195.341 186.913 195.627C186.99 195.735 187.095 195.82 187.216 195.874C187.338 195.928 187.471 195.948 187.603 195.934C187.705 195.944 187.808 195.944 187.909 195.934L188.146 195.863C188.208 195.846 188.267 195.822 188.325 195.793C188.369 195.785 188.415 195.785 188.459 195.793C188.49 195.784 188.523 195.784 188.555 195.793C188.593 195.823 188.618 195.866 188.625 195.914C188.646 195.992 188.663 196.071 188.676 196.151C188.684 196.281 188.684 196.411 188.676 196.541C188.68 196.729 188.665 196.917 188.631 197.103C188.618 197.206 188.576 197.304 188.51 197.384C188.449 197.452 188.372 197.505 188.286 197.537C188.172 197.583 188.055 197.619 187.935 197.646C187.792 197.681 187.647 197.704 187.501 197.716C187.345 197.726 187.19 197.726 187.034 197.716C186.66 197.724 186.286 197.67 185.929 197.556C185.636 197.459 185.373 197.29 185.162 197.064C184.949 196.822 184.796 196.534 184.715 196.221C184.612 195.829 184.563 195.425 184.568 195.02V191.155H183.655C183.598 191.154 183.543 191.133 183.499 191.097C183.455 191.062 183.425 191.012 183.412 190.957C183.341 190.741 183.311 190.513 183.322 190.286C183.315 190.148 183.315 190.009 183.322 189.871C183.332 189.778 183.356 189.688 183.393 189.603C183.413 189.549 183.448 189.502 183.495 189.468C183.538 189.438 183.589 189.423 183.642 189.424H184.549V187.756C184.547 187.702 184.563 187.648 184.594 187.603C184.639 187.549 184.699 187.509 184.766 187.488C184.873 187.45 184.985 187.426 185.098 187.418C185.239 187.418 185.405 187.418 185.61 187.418C185.814 187.418 185.993 187.418 186.133 187.418C186.245 187.426 186.355 187.449 186.459 187.488C186.525 187.509 186.583 187.549 186.625 187.603C186.663 187.645 186.683 187.7 186.683 187.756V189.443L191.589 189.424Z" fill="#727271"/>
<path d="M199.812 193.506C199.813 193.161 199.783 192.817 199.722 192.477C199.671 192.188 199.567 191.911 199.415 191.66C199.278 191.433 199.085 191.246 198.853 191.117C198.578 190.98 198.273 190.914 197.965 190.925C197.677 190.919 197.391 190.978 197.128 191.097C196.893 191.214 196.692 191.39 196.547 191.609C196.383 191.851 196.266 192.122 196.202 192.407C196.121 192.759 196.082 193.119 196.087 193.48C196.086 193.825 196.116 194.17 196.176 194.509C196.232 194.797 196.335 195.073 196.483 195.327C196.617 195.554 196.812 195.74 197.045 195.863C197.322 195.995 197.627 196.059 197.933 196.049C198.222 196.055 198.508 195.996 198.77 195.876C199.007 195.765 199.209 195.593 199.358 195.378C199.521 195.133 199.638 194.86 199.703 194.573C199.778 194.222 199.815 193.865 199.812 193.506ZM201.99 193.423C201.998 194.018 201.912 194.611 201.735 195.18C201.581 195.686 201.32 196.152 200.968 196.547C200.616 196.937 200.179 197.241 199.69 197.435C198.538 197.841 197.284 197.852 196.125 197.467C195.653 197.3 195.228 197.022 194.886 196.656C194.547 196.28 194.298 195.832 194.158 195.346C193.991 194.769 193.911 194.17 193.921 193.57C193.916 192.974 194.004 192.381 194.183 191.813C194.34 191.305 194.603 190.837 194.956 190.439C195.311 190.054 195.748 189.753 196.234 189.558C196.813 189.336 197.429 189.23 198.048 189.245C198.646 189.231 199.241 189.324 199.805 189.519C200.274 189.686 200.697 189.962 201.038 190.324C201.375 190.703 201.622 191.153 201.76 191.64C201.925 192.216 202.002 192.812 201.99 193.41V193.423Z" fill="#727271"/>
<path d="M210.89 197.256C210.889 197.311 210.871 197.365 210.838 197.409C210.792 197.459 210.732 197.494 210.666 197.512C210.56 197.545 210.451 197.567 210.34 197.576C210.2 197.576 210.033 197.576 209.829 197.576C209.625 197.576 209.446 197.576 209.305 197.576C209.194 197.567 209.085 197.545 208.979 197.512C208.913 197.494 208.854 197.459 208.807 197.409C208.774 197.365 208.756 197.311 208.756 197.256V192.957C208.764 192.667 208.738 192.378 208.679 192.094C208.633 191.903 208.556 191.722 208.449 191.557C208.349 191.408 208.213 191.287 208.053 191.206C207.878 191.12 207.685 191.079 207.491 191.085C207.193 191.092 206.905 191.198 206.673 191.385C206.347 191.628 206.056 191.916 205.811 192.241V197.256C205.813 197.312 205.795 197.366 205.759 197.409C205.713 197.459 205.653 197.494 205.587 197.512C205.483 197.544 205.376 197.566 205.268 197.576C205.127 197.576 204.954 197.576 204.75 197.576C204.546 197.576 204.373 197.576 204.233 197.576C204.122 197.565 204.013 197.544 203.907 197.512C203.841 197.494 203.781 197.459 203.734 197.409C203.701 197.365 203.684 197.311 203.683 197.256V189.711C203.68 189.658 203.696 189.606 203.728 189.564C203.763 189.512 203.815 189.473 203.875 189.456C203.968 189.424 204.064 189.403 204.162 189.392C204.307 189.384 204.452 189.384 204.597 189.392C204.746 189.384 204.895 189.384 205.044 189.392C205.138 189.401 205.23 189.422 205.319 189.456C205.375 189.477 205.424 189.515 205.459 189.564C205.488 189.608 205.504 189.659 205.504 189.711V190.58C205.868 190.172 206.3 189.83 206.782 189.571C207.197 189.35 207.659 189.233 208.13 189.232C208.569 189.22 209.006 189.308 209.407 189.488C209.746 189.642 210.04 189.88 210.263 190.177C210.487 190.481 210.646 190.826 210.73 191.193C210.835 191.654 210.884 192.126 210.877 192.599L210.89 197.256Z" fill="#727271"/>
<path d="M218.294 195.122C218.301 195.515 218.218 195.904 218.051 196.259C217.894 196.582 217.661 196.862 217.374 197.077C217.058 197.304 216.703 197.47 216.326 197.569C215.91 197.681 215.48 197.736 215.049 197.735C214.777 197.737 214.505 197.716 214.237 197.671C214.003 197.635 213.772 197.579 213.547 197.505C213.371 197.454 213.2 197.388 213.036 197.307C212.931 197.255 212.832 197.191 212.742 197.116C212.668 197.038 212.619 196.94 212.602 196.834C212.556 196.651 212.537 196.461 212.544 196.272C212.536 196.142 212.536 196.012 212.544 195.883C212.554 195.802 212.571 195.723 212.595 195.646C212.609 195.599 212.638 195.559 212.678 195.531C212.717 195.509 212.761 195.498 212.806 195.499C212.905 195.513 212.999 195.551 213.081 195.608C213.202 195.678 213.356 195.761 213.534 195.844C213.741 195.939 213.955 196.018 214.173 196.081C214.436 196.161 214.71 196.2 214.985 196.196C215.157 196.199 215.329 196.178 215.496 196.132C215.634 196.098 215.766 196.042 215.885 195.966C215.994 195.897 216.083 195.8 216.141 195.685C216.196 195.562 216.224 195.429 216.224 195.295C216.227 195.135 216.17 194.98 216.064 194.86C215.948 194.728 215.807 194.619 215.649 194.541C215.46 194.445 215.266 194.36 215.068 194.285C214.85 194.209 214.62 194.119 214.397 194.023C214.167 193.928 213.943 193.819 213.726 193.698C213.509 193.574 213.311 193.419 213.138 193.238C212.964 193.05 212.824 192.834 212.723 192.599C212.613 192.307 212.561 191.997 212.57 191.685C212.566 191.344 212.638 191.005 212.781 190.695C212.928 190.39 213.148 190.125 213.419 189.922C213.707 189.694 214.037 189.524 214.39 189.424C214.805 189.299 215.236 189.239 215.668 189.245C215.901 189.245 216.134 189.262 216.365 189.296C216.57 189.325 216.772 189.367 216.972 189.424C217.127 189.465 217.278 189.518 217.425 189.583C217.522 189.624 217.614 189.675 217.7 189.737C217.745 189.773 217.784 189.816 217.815 189.864C217.836 189.913 217.851 189.965 217.86 190.018C217.876 190.089 217.886 190.162 217.891 190.235C217.899 190.343 217.899 190.452 217.891 190.561C217.899 190.684 217.899 190.808 217.891 190.931C217.89 191.01 217.875 191.088 217.847 191.161C217.835 191.207 217.808 191.248 217.77 191.276C217.733 191.297 217.691 191.308 217.649 191.308C217.564 191.296 217.484 191.266 217.412 191.219C217.304 191.161 217.17 191.097 217.003 191.027C216.822 190.955 216.636 190.893 216.448 190.842C216.21 190.777 215.965 190.747 215.719 190.752C215.549 190.75 215.38 190.769 215.215 190.81C215.088 190.841 214.97 190.9 214.87 190.982C214.78 191.048 214.71 191.137 214.665 191.238C214.619 191.336 214.595 191.443 214.595 191.551C214.592 191.714 214.652 191.871 214.761 191.992C214.878 192.124 215.022 192.231 215.183 192.305C215.375 192.404 215.573 192.489 215.777 192.56C216 192.637 216.23 192.72 216.46 192.816C216.692 192.912 216.918 193.02 217.138 193.142C217.358 193.262 217.558 193.415 217.732 193.595C217.913 193.78 218.058 193.997 218.16 194.234C218.274 194.516 218.328 194.818 218.32 195.122" fill="#727271"/>
<path fill-rule="evenodd" clip-rule="evenodd" d="M133.414 156.829C146.128 166.035 165.211 163.045 174.653 149.463C186.255 164.629 207.114 165.6 220.191 152.408C232.969 136.66 230.477 126.4 231.199 101.784H214.397L214.346 118.561C214.256 147.271 184.792 147.533 184.792 118.561V101.784H165.543L165.671 119.276C165.875 147.987 134.615 148.025 134.628 119.053V101.803H118.107V102.48L117.89 101.797L117.768 139.573C117.507 192.925 52.9875 182.326 59.2101 123.531H42.7337C33.7896 201.652 116.778 213.311 133.382 156.931L133.414 156.829Z" fill="#727271"/>
<path d="M232.542 232.541C285.584 179.499 285.584 93.5009 232.542 40.4588C179.5 -12.5833 93.5017 -12.5833 40.4596 40.4588C-12.5825 93.5009 -12.5825 179.499 40.4596 232.541C93.5017 285.583 179.5 285.583 232.542 232.541Z" stroke="#727271" stroke-width="2.13" stroke-miterlimit="22.93" stroke-linecap="round" stroke-linejoin="round"/>
<path fill-rule="evenodd" clip-rule="evenodd" d="M97.9956 64.979C94.9546 66.3781 90.0545 76.3828 88.4893 80.8995C83.9789 93.9068 99.778 99.9122 106.486 91.0128C110.766 85.346 106.627 77.9416 103.49 72.2046C102.212 69.8599 100.027 65.8798 97.9956 64.979ZM98.9539 93.5235C96.5709 94.6351 92.7824 92.2458 91.8241 91.0703C86.9113 84.9563 92.5269 74.3256 96.0151 69.0997C94.7949 75.4053 85.9657 89.8436 98.9539 93.5235Z" fill="#D19563"/>
<path d="M194.464 216.071C195.177 217.128 195.571 218.367 195.601 219.642H197.601C198.681 219.642 199.224 219.15 199.224 218.185V217.093H200.648V218.185C200.648 218.57 200.801 218.939 201.073 219.211C201.345 219.483 201.714 219.636 202.099 219.636C202.483 219.636 202.852 219.483 203.124 219.211C203.396 218.939 203.549 218.57 203.549 218.185V217.093H205.006V218.185C204.976 218.382 204.992 218.584 205.054 218.773C205.116 218.963 205.221 219.135 205.361 219.277C205.502 219.418 205.673 219.525 205.862 219.588C206.051 219.652 206.252 219.67 206.449 219.642C207.414 219.642 207.893 219.348 207.893 218.767V214.774H209.318V219.642H210.481C211.959 219.642 212.697 219.076 212.697 217.943V204.744H214.122V218.748C214.137 219.153 214.059 219.557 213.894 219.928C213.729 220.299 213.481 220.627 213.17 220.888C212.426 221.454 211.504 221.737 210.57 221.686H210.206C210.017 221.678 209.833 221.622 209.67 221.525C209.507 221.428 209.371 221.293 209.273 221.131C209.2 221.029 209.138 220.919 209.088 220.805C208.915 221.107 208.657 221.352 208.345 221.509C208.034 221.666 207.684 221.727 207.337 221.686H206.449C205.389 221.686 204.673 221.424 204.284 220.901C203.913 221.424 203.191 221.686 202.131 221.686C201.07 221.686 200.355 221.424 199.971 220.901C199.575 221.424 198.796 221.686 197.633 221.686H196.489C196.227 221.592 196.003 221.415 195.851 221.182C195.746 221.048 195.666 220.896 195.614 220.734C195.522 221.524 195.259 222.284 194.843 222.962C194.427 223.639 193.868 224.218 193.206 224.657C191.323 225.856 189.118 226.45 186.887 226.356V224.306C188.728 224.388 190.56 224.015 192.222 223.22C192.831 222.948 193.348 222.505 193.709 221.945C194.069 221.384 194.259 220.73 194.253 220.064C194.253 218.863 193.647 217.598 192.445 216.23V216.103L194.464 216.071ZM185.028 224.874H183.431V223.277H185.028V224.874ZM178.243 216.071C178.956 217.128 179.35 218.367 179.381 219.642H181.368C182.858 219.642 183.601 219.076 183.597 217.943V213.879H185.022V218.748C185.037 219.154 184.958 219.558 184.792 219.929C184.626 220.3 184.377 220.628 184.064 220.888C183.317 221.454 182.393 221.737 181.457 221.686H180.237C179.956 221.604 179.714 221.426 179.553 221.182C179.453 221.045 179.374 220.894 179.317 220.734C179.227 221.524 178.965 222.284 178.55 222.962C178.135 223.639 177.577 224.218 176.915 224.657C175.03 225.857 172.822 226.451 170.59 226.356V224.306C172.432 224.388 174.267 224.015 175.931 223.22C176.54 222.948 177.057 222.505 177.417 221.945C177.778 221.384 177.968 220.73 177.962 220.064C177.962 218.863 177.355 217.598 176.154 216.23V216.103L178.243 216.071ZM182.077 224.874H180.467V223.277H182.077V224.874ZM218.275 221.68H216.85V204.744H218.275V221.68Z" fill="#727271"/>
<path d="M194.464 216.071C195.177 217.128 195.571 218.367 195.601 219.642H197.601C198.681 219.642 199.224 219.15 199.224 218.185V217.093H200.648V218.185C200.648 218.57 200.801 218.939 201.073 219.211C201.345 219.483 201.714 219.636 202.099 219.636C202.483 219.636 202.852 219.483 203.124 219.211C203.396 218.939 203.549 218.57 203.549 218.185V217.093H205.006V218.185C204.976 218.382 204.992 218.584 205.054 218.773C205.116 218.963 205.221 219.135 205.361 219.277C205.502 219.418 205.673 219.525 205.862 219.588C206.051 219.652 206.252 219.67 206.449 219.642C207.414 219.642 207.893 219.348 207.893 218.767V214.774H209.318V219.642H210.481C211.959 219.642 212.697 219.076 212.697 217.943V204.744H214.122V218.748C214.137 219.153 214.059 219.557 213.894 219.928C213.729 220.299 213.481 220.627 213.17 220.888C212.426 221.454 211.504 221.737 210.57 221.686H210.206C210.017 221.678 209.833 221.622 209.67 221.525C209.507 221.428 209.371 221.293 209.273 221.131C209.2 221.029 209.138 220.919 209.088 220.805C208.915 221.107 208.657 221.352 208.345 221.509C208.034 221.666 207.684 221.727 207.337 221.686H206.449C205.389 221.686 204.673 221.424 204.284 220.901C203.913 221.424 203.191 221.686 202.131 221.686C201.07 221.686 200.355 221.424 199.971 220.901C199.575 221.424 198.796 221.686 197.633 221.686H196.489C196.227 221.592 196.003 221.415 195.851 221.182C195.746 221.048 195.666 220.896 195.614 220.734C195.522 221.524 195.259 222.284 194.843 222.962C194.427 223.639 193.868 224.218 193.206 224.657C191.323 225.856 189.118 226.45 186.887 226.356V224.306C188.728 224.388 190.56 224.015 192.222 223.22C192.831 222.948 193.348 222.505 193.709 221.945C194.069 221.384 194.259 220.73 194.253 220.064C194.253 218.863 193.647 217.598 192.445 216.23V216.103L194.464 216.071ZM185.028 224.874H183.431V223.277H185.028V224.874ZM178.243 216.071C178.956 217.128 179.35 218.367 179.381 219.642H181.368C182.858 219.642 183.601 219.076 183.597 217.943V213.879H185.022V218.748C185.037 219.154 184.958 219.558 184.792 219.929C184.626 220.3 184.377 220.628 184.064 220.888C183.317 221.454 182.393 221.737 181.457 221.686H180.237C179.956 221.604 179.714 221.426 179.553 221.182C179.453 221.045 179.374 220.894 179.317 220.734C179.227 221.524 178.965 222.284 178.55 222.962C178.135 223.639 177.577 224.218 176.915 224.657C175.03 225.857 172.822 226.451 170.59 226.356V224.306C172.432 224.388 174.267 224.015 175.931 223.22C176.54 222.948 177.057 222.505 177.417 221.945C177.778 221.384 177.968 220.73 177.962 220.064C177.962 218.863 177.355 217.598 176.154 216.23V216.103L178.243 216.071ZM182.077 224.874H180.467V223.277H182.077V224.874ZM218.275 221.68H216.85V204.744H218.275V221.68Z" stroke="#727271" stroke-width="0.22" stroke-miterlimit="22.93"/>
<path d="M120.401 218.518C120.418 218.988 120.308 219.454 120.084 219.868C119.859 220.282 119.527 220.627 119.123 220.869C117.942 221.481 116.618 221.764 115.29 221.686H111.738C108.113 221.686 106.301 219.955 106.301 216.492C106.309 215.611 106.423 214.734 106.639 213.879H108.064V213.988C107.844 214.761 107.73 215.561 107.725 216.365C107.683 216.827 107.746 217.294 107.91 217.729C108.074 218.163 108.334 218.556 108.671 218.875C109.588 219.462 110.672 219.731 111.757 219.642H115.207C116.169 219.687 117.131 219.541 118.037 219.214C118.341 219.103 118.602 218.897 118.78 218.627C118.959 218.357 119.045 218.036 119.027 217.713V213.879H120.452L120.401 218.518ZM115.929 212.812H114.325V211.209H115.929V212.812ZM112.99 212.812H111.38V211.209H113.009L112.99 212.812ZM141.739 219.84C141.99 219.852 142.241 219.811 142.475 219.72C142.71 219.628 142.922 219.489 143.099 219.31C143.266 219.142 143.398 218.943 143.485 218.723C143.573 218.503 143.616 218.268 143.611 218.032C143.614 217.35 143.389 216.687 142.972 216.147C142.78 215.881 142.526 215.665 142.232 215.52C141.938 215.374 141.613 215.302 141.285 215.31C140.071 215.31 139.458 216.013 139.458 217.412C139.455 218.03 139.683 218.627 140.097 219.086C140.291 219.33 140.538 219.526 140.819 219.66C141.1 219.794 141.408 219.862 141.72 219.859L141.739 219.84ZM149.833 218.518C150.462 218.087 151.02 217.561 151.488 216.959C151.836 216.574 152.059 216.093 152.127 215.579C152.127 214.972 151.366 214.665 149.852 214.665C148.338 214.665 147.591 214.972 147.591 215.579C147.659 216.093 147.882 216.574 148.23 216.959C148.675 217.562 149.209 218.094 149.814 218.537L149.833 218.518ZM128.112 224.855H126.489V223.258H128.099L128.112 224.855ZM131.044 224.855H129.447V223.258H131.044V224.855ZM162.911 218.728C162.926 219.134 162.848 219.538 162.683 219.909C162.518 220.28 162.27 220.608 161.959 220.869C161.215 221.437 160.293 221.72 159.359 221.667H159.007C158.818 221.66 158.633 221.606 158.47 221.509C158.307 221.411 158.171 221.275 158.074 221.111C157.888 220.85 157.767 220.548 157.723 220.23C157.571 220.472 157.382 220.687 157.161 220.869C156.417 221.437 155.495 221.72 154.561 221.667H153.283C152.025 221.589 150.817 221.145 149.808 220.389C148.802 221.148 147.596 221.592 146.339 221.667H145.451C145.261 221.659 145.077 221.604 144.914 221.507C144.751 221.41 144.615 221.274 144.518 221.111C144.411 220.968 144.327 220.808 144.269 220.639C144.234 220.693 144.196 220.744 144.154 220.792C143.878 221.137 143.525 221.412 143.123 221.594C142.721 221.776 142.282 221.86 141.841 221.84C141.249 221.839 140.667 221.681 140.156 221.381C139.645 221.081 139.223 220.651 138.934 220.134C138.743 220.621 138.444 221.058 138.059 221.412C137.714 221.61 137.319 221.703 136.922 221.68H136.724C136.534 221.672 136.35 221.617 136.187 221.52C136.024 221.423 135.888 221.287 135.791 221.124C135.607 220.862 135.487 220.56 135.439 220.243C135.288 220.483 135.101 220.698 134.884 220.881C134.139 221.448 133.218 221.731 132.283 221.68H131.919C131.73 221.671 131.546 221.616 131.383 221.519C131.221 221.422 131.084 221.286 130.987 221.124C130.803 220.862 130.682 220.56 130.635 220.243C130.484 220.484 130.294 220.7 130.073 220.881C129.327 221.449 128.403 221.732 127.466 221.68H126.489C126.042 221.706 125.596 221.634 125.18 221.47C124.764 221.305 124.389 221.052 124.08 220.728C123.467 219.981 123.159 219.029 123.218 218.064V204.744H124.643V217.943C124.619 218.178 124.644 218.415 124.715 218.64C124.787 218.865 124.903 219.074 125.058 219.252C125.456 219.549 125.95 219.688 126.444 219.642H127.377C128.868 219.642 129.611 219.076 129.607 217.943V213.879H131.031V218.748C131.035 219.05 130.994 219.351 130.91 219.642H132.188C133.666 219.642 134.405 219.076 134.405 217.943V204.744H135.829V218.748C135.83 219.05 135.789 219.351 135.708 219.642H136.315C136.998 219.642 137.433 219.444 137.631 219.054C137.875 218.444 138.005 217.795 138.014 217.138C138.167 214.582 139.164 213.26 141.01 213.26C141.553 213.243 142.092 213.35 142.588 213.571C143.083 213.792 143.522 214.123 143.873 214.537C144.654 215.503 145.054 216.721 144.997 217.962C145.004 218.515 144.927 219.067 144.767 219.597H146.332C147.038 219.605 147.739 219.483 148.402 219.239C146.875 217.783 146.109 216.441 146.109 215.195C146.099 214.816 146.188 214.44 146.366 214.104C146.544 213.769 146.805 213.485 147.124 213.279C147.946 212.83 148.868 212.595 149.804 212.595C150.741 212.595 151.662 212.83 152.484 213.279C152.803 213.485 153.063 213.769 153.24 214.105C153.417 214.441 153.504 214.816 153.494 215.195C153.494 216.473 152.734 217.783 151.207 219.239C151.869 219.483 152.571 219.605 153.277 219.597H154.439C155.922 219.597 156.663 219.031 156.663 217.898V204.744H158.087V218.748C158.089 219.05 158.046 219.352 157.959 219.642H159.237C160.719 219.642 161.454 219.073 161.454 217.943V204.744H162.879L162.911 218.728Z" fill="#727271"/>
<path d="M120.401 218.518C120.418 218.988 120.308 219.454 120.084 219.868C119.859 220.282 119.527 220.627 119.123 220.869C117.942 221.481 116.618 221.764 115.29 221.686H111.738C108.113 221.686 106.301 219.955 106.301 216.492C106.309 215.611 106.423 214.734 106.639 213.879H108.064V213.988C107.844 214.761 107.73 215.561 107.725 216.365C107.683 216.827 107.746 217.294 107.91 217.729C108.074 218.163 108.334 218.556 108.671 218.875C109.588 219.462 110.672 219.731 111.757 219.642H115.207C116.169 219.687 117.131 219.541 118.037 219.214C118.341 219.103 118.602 218.897 118.78 218.627C118.959 218.357 119.045 218.036 119.027 217.713V213.879H120.452L120.401 218.518ZM115.929 212.812H114.325V211.209H115.929V212.812ZM112.99 212.812H111.38V211.209H113.009L112.99 212.812ZM141.739 219.84C141.99 219.852 142.241 219.811 142.475 219.72C142.71 219.628 142.922 219.489 143.099 219.31C143.266 219.142 143.398 218.943 143.485 218.723C143.573 218.503 143.616 218.268 143.611 218.032C143.614 217.35 143.389 216.687 142.972 216.147C142.78 215.881 142.526 215.665 142.232 215.52C141.938 215.374 141.613 215.302 141.285 215.31C140.071 215.31 139.458 216.013 139.458 217.412C139.455 218.03 139.683 218.627 140.097 219.086C140.291 219.33 140.538 219.526 140.819 219.66C141.1 219.794 141.408 219.862 141.72 219.859L141.739 219.84ZM149.833 218.518C150.462 218.087 151.02 217.561 151.488 216.959C151.836 216.574 152.059 216.093 152.127 215.579C152.127 214.972 151.366 214.665 149.852 214.665C148.338 214.665 147.591 214.972 147.591 215.579C147.659 216.093 147.882 216.574 148.23 216.959C148.675 217.562 149.209 218.094 149.814 218.537L149.833 218.518ZM128.112 224.855H126.489V223.258H128.099L128.112 224.855ZM131.044 224.855H129.447V223.258H131.044V224.855ZM162.911 218.728C162.926 219.134 162.848 219.538 162.683 219.909C162.518 220.28 162.27 220.608 161.959 220.869C161.215 221.437 160.293 221.72 159.359 221.667H159.007C158.818 221.66 158.633 221.606 158.47 221.509C158.307 221.411 158.171 221.275 158.074 221.111C157.888 220.85 157.767 220.548 157.723 220.23C157.571 220.472 157.382 220.687 157.161 220.869C156.417 221.437 155.495 221.72 154.561 221.667H153.283C152.025 221.589 150.817 221.145 149.808 220.389C148.802 221.148 147.596 221.592 146.339 221.667H145.451C145.261 221.659 145.077 221.604 144.914 221.507C144.751 221.41 144.615 221.274 144.518 221.111C144.411 220.968 144.327 220.808 144.269 220.639C144.234 220.693 144.196 220.744 144.154 220.792C143.878 221.137 143.525 221.412 143.123 221.594C142.721 221.776 142.282 221.86 141.841 221.84C141.249 221.839 140.667 221.681 140.156 221.381C139.645 221.081 139.223 220.651 138.934 220.134C138.743 220.621 138.444 221.058 138.059 221.412C137.714 221.61 137.319 221.703 136.922 221.68H136.724C136.534 221.672 136.35 221.617 136.187 221.52C136.024 221.423 135.888 221.287 135.791 221.124C135.607 220.862 135.487 220.56 135.439 220.243C135.288 220.483 135.101 220.698 134.884 220.881C134.139 221.448 133.218 221.731 132.283 221.68H131.919C131.73 221.671 131.546 221.616 131.383 221.519C131.221 221.422 131.084 221.286 130.987 221.124C130.803 220.862 130.682 220.56 130.635 220.243C130.484 220.484 130.294 220.7 130.073 220.881C129.327 221.449 128.403 221.732 127.466 221.68H126.489C126.042 221.706 125.596 221.634 125.18 221.47C124.764 221.305 124.389 221.052 124.08 220.728C123.467 219.981 123.159 219.029 123.218 218.064V204.744H124.643V217.943C124.619 218.178 124.644 218.415 124.715 218.64C124.787 218.865 124.903 219.074 125.058 219.252C125.456 219.549 125.95 219.688 126.444 219.642H127.377C128.868 219.642 129.611 219.076 129.607 217.943V213.879H131.031V218.748C131.035 219.05 130.994 219.351 130.91 219.642H132.188C133.666 219.642 134.405 219.076 134.405 217.943V204.744H135.829V218.748C135.83 219.05 135.789 219.351 135.708 219.642H136.315C136.998 219.642 137.433 219.444 137.631 219.054C137.875 218.444 138.005 217.795 138.014 217.138C138.167 214.582 139.164 213.26 141.01 213.26C141.553 213.243 142.092 213.35 142.588 213.571C143.083 213.792 143.522 214.123 143.873 214.537C144.654 215.503 145.054 216.721 144.997 217.962C145.004 218.515 144.927 219.067 144.767 219.597H146.332C147.038 219.605 147.739 219.483 148.402 219.239C146.875 217.783 146.109 216.441 146.109 215.195C146.099 214.816 146.188 214.44 146.366 214.104C146.544 213.769 146.805 213.485 147.124 213.279C147.946 212.83 148.868 212.595 149.804 212.595C150.741 212.595 151.662 212.83 152.484 213.279C152.803 213.485 153.063 213.769 153.24 214.105C153.417 214.441 153.504 214.816 153.494 215.195C153.494 216.473 152.734 217.783 151.207 219.239C151.869 219.483 152.571 219.605 153.277 219.597H154.439C155.922 219.597 156.663 219.031 156.663 217.898V204.744H158.087V218.748C158.089 219.05 158.046 219.352 157.959 219.642H159.237C160.719 219.642 161.454 219.073 161.454 217.943V204.744H162.879L162.911 218.728Z" stroke="#727271" stroke-width="0.22" stroke-miterlimit="22.93"/>
<path d="M56.5332 215.489V212.295C55.5185 212.457 54.5693 212.9 53.7925 213.573C53.4959 213.829 53.2563 214.144 53.089 214.498C52.9217 214.853 52.8306 215.238 52.8214 215.63C52.811 215.805 52.8368 215.981 52.8972 216.146C52.9577 216.311 53.0515 216.461 53.1728 216.588C53.291 216.701 53.4304 216.788 53.5828 216.846C53.7353 216.905 53.8977 216.932 54.0608 216.927C54.5644 216.933 55.0602 216.803 55.4956 216.55C55.9309 216.296 56.2895 215.93 56.5332 215.489ZM67.8347 219.642H71.6679C72.6318 219.671 73.594 219.543 74.5173 219.265C75.2328 219.016 75.5906 218.69 75.5906 218.3C75.6099 217.424 75.3331 216.566 74.8048 215.866C74.6369 215.588 74.4073 215.352 74.1336 215.177C73.86 215.002 73.5497 214.893 73.2268 214.857C72.2983 214.877 71.4122 215.249 70.748 215.898C69.6371 217.031 68.6596 218.287 67.8347 219.642ZM80.7462 218.792C81.125 218.468 81.4317 218.068 81.6463 217.618C81.8608 217.168 81.9786 216.678 81.992 216.179C82.0043 215.793 81.8849 215.415 81.6534 215.106C81.5412 214.974 81.4017 214.868 81.2445 214.795C81.0873 214.723 80.9162 214.685 80.743 214.685C80.5698 214.685 80.3987 214.723 80.2415 214.795C80.0843 214.868 79.9448 214.974 79.8326 215.106C79.5983 215.413 79.4786 215.793 79.494 216.179C79.5074 216.678 79.6258 217.169 79.8416 217.619C80.0573 218.07 80.3656 218.469 80.7462 218.792ZM87.9079 211.988H86.2979V210.385H87.9079V211.988ZM81.5192 210.711H79.9157V209.107H81.5192V210.711ZM60.6922 224.868H59.0823V223.271H60.6922V224.868ZM63.6246 224.868H62.0274V223.271H63.6246V224.868ZM54.4441 208.577H52.8342V206.973H54.4441V208.577ZM57.3765 208.577H55.7793V206.973H57.3765V208.577ZM59.1078 221.686C58.7423 221.709 58.3769 221.642 58.0429 221.492C57.709 221.342 57.4167 221.112 57.1912 220.824C56.7568 220.243 56.5524 219.105 56.5524 217.412C56.2804 217.837 55.9043 218.184 55.4599 218.422C55.0369 218.676 54.5544 218.815 54.0608 218.824C53.6988 218.834 53.3392 218.764 53.0077 218.618C52.6763 218.472 52.3814 218.255 52.1442 217.981C51.6216 217.332 51.3577 216.513 51.4031 215.681C51.4175 215.114 51.5467 214.555 51.7827 214.039C52.0188 213.523 52.3569 213.06 52.7767 212.678C53.8113 211.693 55.1259 211.052 56.5396 210.845V210.059H57.9643V217.425C57.9238 218.009 58.0178 218.595 58.239 219.137C58.3172 219.301 58.4421 219.437 58.598 219.529C58.7538 219.621 58.9335 219.665 59.1142 219.655H59.9831C61.4652 219.655 62.2127 219.086 62.2127 217.955V213.892H63.631V218.76C63.6345 219.063 63.5936 219.364 63.5096 219.655H66.2887L66.3909 219.361V204.744H67.8156V217.368C69.6725 214.327 71.4763 212.808 73.2268 212.812C74.2362 212.812 75.1135 213.392 75.8589 214.55C76.6031 215.689 76.9943 217.023 76.9833 218.383C76.9912 218.811 76.8947 219.234 76.7022 219.616H78.3185C78.7278 219.613 79.1346 219.551 79.526 219.431C78.6611 218.505 78.1402 217.309 78.0502 216.045C78.0058 215.147 78.2696 214.262 78.7977 213.534C79.0239 213.241 79.3143 213.004 79.6465 212.841C79.9788 212.678 80.3441 212.593 80.7143 212.593C81.0845 212.593 81.4497 212.678 81.782 212.841C82.1142 213.004 82.4046 213.241 82.6309 213.534C83.1618 214.26 83.4258 215.147 83.3783 216.045C83.2913 217.308 82.7751 218.502 81.9153 219.431C82.2965 219.548 82.6923 219.61 83.0908 219.616H84.8988C86.3895 219.616 87.1327 219.05 87.1285 217.917V213.854H88.5531V218.722C88.5547 219.025 88.5116 219.326 88.4254 219.616H89.7031C91.1853 219.616 91.92 219.048 91.92 217.917V204.744H93.3446V218.748C93.3595 219.153 93.2815 219.557 93.1165 219.928C92.9515 220.299 92.704 220.627 92.3927 220.888C91.6492 221.456 90.7268 221.739 89.7925 221.686H89.4348C89.2452 221.679 89.0603 221.625 88.8973 221.528C88.7343 221.431 88.5984 221.294 88.502 221.131C88.3154 220.869 88.1948 220.567 88.1507 220.249C87.9971 220.489 87.8075 220.705 87.5885 220.888C86.8415 221.454 85.9179 221.737 84.9819 221.686H83.6211C82.5844 221.625 81.5917 221.246 80.7782 220.6C79.961 221.244 78.967 221.623 77.9288 221.686H77.4816C77.292 221.679 77.1072 221.625 76.9442 221.528C76.7812 221.431 76.6452 221.294 76.5489 221.131C76.3822 220.901 76.2688 220.637 76.2167 220.357C76.0445 220.523 75.8561 220.671 75.6544 220.798C74.5123 221.446 73.2091 221.754 71.8979 221.686H64.5446C64.3543 221.679 64.1688 221.624 64.0049 221.527C63.841 221.43 63.7037 221.294 63.6054 221.131C63.424 220.867 63.3039 220.565 63.2541 220.249C63.1048 220.491 62.917 220.706 62.6983 220.888C61.9513 221.454 61.0277 221.737 60.0917 221.686H59.1078ZM97.5867 221.686H96.162V204.744H97.5867V221.686Z" fill="#727271"/>
<path d="M56.5332 215.489V212.295C55.5185 212.457 54.5693 212.9 53.7925 213.573C53.4959 213.829 53.2563 214.144 53.089 214.498C52.9217 214.853 52.8306 215.238 52.8214 215.63C52.811 215.805 52.8368 215.981 52.8972 216.146C52.9577 216.311 53.0515 216.461 53.1728 216.588C53.291 216.701 53.4304 216.788 53.5828 216.846C53.7353 216.905 53.8977 216.932 54.0608 216.927C54.5644 216.933 55.0602 216.803 55.4956 216.55C55.9309 216.296 56.2895 215.93 56.5332 215.489ZM67.8347 219.642H71.6679C72.6318 219.671 73.594 219.543 74.5173 219.265C75.2328 219.016 75.5906 218.69 75.5906 218.3C75.6099 217.424 75.3331 216.566 74.8048 215.866C74.6369 215.588 74.4073 215.352 74.1336 215.177C73.86 215.002 73.5497 214.893 73.2268 214.857C72.2983 214.877 71.4122 215.249 70.748 215.898C69.6371 217.031 68.6596 218.287 67.8347 219.642ZM80.7462 218.792C81.125 218.468 81.4317 218.068 81.6463 217.618C81.8608 217.168 81.9786 216.678 81.992 216.179C82.0043 215.793 81.8849 215.415 81.6534 215.106C81.5412 214.974 81.4017 214.868 81.2445 214.795C81.0873 214.723 80.9162 214.685 80.743 214.685C80.5698 214.685 80.3987 214.723 80.2415 214.795C80.0843 214.868 79.9448 214.974 79.8326 215.106C79.5983 215.413 79.4786 215.793 79.494 216.179C79.5074 216.678 79.6258 217.169 79.8416 217.619C80.0573 218.07 80.3656 218.469 80.7462 218.792ZM87.9079 211.988H86.2979V210.385H87.9079V211.988ZM81.5192 210.711H79.9157V209.107H81.5192V210.711ZM60.6922 224.868H59.0823V223.271H60.6922V224.868ZM63.6246 224.868H62.0274V223.271H63.6246V224.868ZM54.4441 208.577H52.8342V206.973H54.4441V208.577ZM57.3765 208.577H55.7793V206.973H57.3765V208.577ZM59.1078 221.686C58.7423 221.709 58.3769 221.642 58.0429 221.492C57.709 221.342 57.4167 221.112 57.1912 220.824C56.7568 220.243 56.5524 219.105 56.5524 217.412C56.2804 217.837 55.9043 218.184 55.4599 218.422C55.0369 218.676 54.5544 218.815 54.0608 218.824C53.6988 218.834 53.3392 218.764 53.0077 218.618C52.6763 218.472 52.3814 218.255 52.1442 217.981C51.6216 217.332 51.3577 216.513 51.4031 215.681C51.4175 215.114 51.5467 214.555 51.7827 214.039C52.0188 213.523 52.3569 213.06 52.7767 212.678C53.8113 211.693 55.1259 211.052 56.5396 210.845V210.059H57.9643V217.425C57.9238 218.009 58.0178 218.595 58.239 219.137C58.3172 219.301 58.4421 219.437 58.598 219.529C58.7538 219.621 58.9335 219.665 59.1142 219.655H59.9831C61.4652 219.655 62.2127 219.086 62.2127 217.955V213.892H63.631V218.76C63.6345 219.063 63.5936 219.364 63.5096 219.655H66.2887L66.3909 219.361V204.744H67.8156V217.368C69.6725 214.327 71.4763 212.808 73.2268 212.812C74.2362 212.812 75.1135 213.392 75.8589 214.55C76.6031 215.689 76.9943 217.023 76.9833 218.383C76.9912 218.811 76.8947 219.234 76.7022 219.616H78.3185C78.7278 219.613 79.1346 219.551 79.526 219.431C78.6611 218.505 78.1402 217.309 78.0502 216.045C78.0058 215.147 78.2696 214.262 78.7977 213.534C79.0239 213.241 79.3143 213.004 79.6465 212.841C79.9788 212.678 80.3441 212.593 80.7143 212.593C81.0845 212.593 81.4497 212.678 81.782 212.841C82.1142 213.004 82.4046 213.241 82.6309 213.534C83.1618 214.26 83.4258 215.147 83.3783 216.045C83.2913 217.308 82.7751 218.502 81.9153 219.431C82.2965 219.548 82.6923 219.61 83.0908 219.616H84.8988C86.3895 219.616 87.1327 219.05 87.1285 217.917V213.854H88.5531V218.722C88.5547 219.025 88.5116 219.326 88.4254 219.616H89.7031C91.1853 219.616 91.92 219.048 91.92 217.917V204.744H93.3446V218.748C93.3595 219.153 93.2815 219.557 93.1165 219.928C92.9515 220.299 92.704 220.627 92.3927 220.888C91.6492 221.456 90.7268 221.739 89.7925 221.686H89.4348C89.2452 221.679 89.0603 221.625 88.8973 221.528C88.7343 221.431 88.5984 221.294 88.502 221.131C88.3154 220.869 88.1948 220.567 88.1507 220.249C87.9971 220.489 87.8075 220.705 87.5885 220.888C86.8415 221.454 85.9179 221.737 84.9819 221.686H83.6211C82.5844 221.625 81.5917 221.246 80.7782 220.6C79.961 221.244 78.967 221.623 77.9288 221.686H77.4816C77.292 221.679 77.1072 221.625 76.9442 221.528C76.7812 221.431 76.6452 221.294 76.5489 221.131C76.3822 220.901 76.2688 220.637 76.2167 220.357C76.0445 220.523 75.8561 220.671 75.6544 220.798C74.5123 221.446 73.2091 221.754 71.8979 221.686H64.5446C64.3543 221.679 64.1688 221.624 64.0049 221.527C63.841 221.43 63.7037 221.294 63.6054 221.131C63.424 220.867 63.3039 220.565 63.2541 220.249C63.1048 220.491 62.917 220.706 62.6983 220.888C61.9513 221.454 61.0277 221.737 60.0917 221.686H59.1078ZM97.5867 221.686H96.162V204.744H97.5867V221.686Z" stroke="#727271" stroke-width="0.22" stroke-miterlimit="22.93"/>
<path fill-rule="evenodd" clip-rule="evenodd" d="M47.5252 100.232C38.0253 87.186 40.0441 68.1733 48.5921 56.7249C61.1586 42.9829 78.5804 46.8416 97.9445 46.1133L97.8742 64.1293C89.4156 63.9057 83.8191 63.6821 75.4117 63.829C54.6422 63.6949 53.9905 83.6339 66.4037 94.041C78.0374 103.624 111.916 113.45 113.68 137.362C114.24 147.016 111.29 156.546 105.374 164.195C101.688 116.28 57.6448 114.057 47.5699 100.219" fill="#D19563"/>
</g>
<defs>
<clipPath id="clip0_2_2">
<rect width="273" height="273" fill="white"/>
</clipPath>
</defs>
</svg>
