<svg xmlns="http://www.w3.org/2000/svg" width="534" height="458.572" viewBox="0 0 534 458.572"><g transform="translate(-1360.4 1.572)"><path d="M1818.4,109h76v55h-76Z" fill="#4d1200"/><path d="M1360.4,109h76v55h-76Z" fill="#4d1200"/><path d="M1818.4,188h76v55h-76Z" fill="#4d1200"/><path d="M1360.4,188h76v55h-76Z" fill="#4d1200"/><path d="M1746.4,188h35v55h-35Z" fill="#4d1200"/><path d="M1705.4,188h35v55h-35Z" fill="#4d1200"/><path d="M1818.4,402h76v55h-76Z" fill="#0e3700"/><path d="M1705.4,402h76v55h-76Z" fill="#0e3700"/><path d="M1589.4,402h76v55h-76Z" fill="#0e3700"/><path d="M1474.4,402h76v55h-76Z" fill="#0e3700"/><path d="M1360.4,402h76v55h-76Z" fill="#0e3700"/><path d="M1894.4,267h-76v55h-37V267h-76v55h-40V267h-76v55h-39V267h-76v55h-38V267h-76V378h534Zm-478,24h-37v29h37Zm308,0h37v29h-37Z" fill="#4d1200" fill-rule="evenodd"/><path d="M1515.5,94.1c2.1,8.6,3,17,6.1,24.5,8.2,19.5,23.5,30.4,44.4,33.6,6,.9,11.4-.5,14.9-5.9s2.5-10.6-.8-15.9c-8-12.9-5.9-26.9,5.1-35.8,10.3-8.3,24.6-7.2,35.4,2.6a80.48,80.48,0,0,1,18.8,93.3c-14.7,32-48.3,50.3-84.4,45.8-33.4-4.2-61.8-31.1-67.7-65.2-5.2-30.9,5-56.5,28.2-77Z" fill="#0e3700"/><path d="M1604.2,82.5c-19.9-20.7-27.5-44.9-35.2-69.6-1.2-3.7-2.3-7.5-3.5-11.2l-6.1,19.2h0l-4.8,14.6h0c-1.7,4.8-3.6,9.6-5.7,14.3h0a134.518,134.518,0,0,1-15.7,26.3c-2.8,3.6-5.7,7.1-8.8,10.4h0A7.436,7.436,0,0,0,1523,89c-.3,1-.5,2.2-.7,3.2h0c-1.6,15,2.7,28.2,12.8,39.2a47.806,47.806,0,0,0,31.2,15.7h0a11.676,11.676,0,0,0,5-.3,7.02,7.02,0,0,0,3.7-3h0a6.711,6.711,0,0,0,1.1-4.6,11.036,11.036,0,0,0-1.8-4.6h0c-.4-.7-.9-1.4-1.3-2.2h0c-6.2-10.9-6.3-22,0-32.8h0c6.2-10.5,15-17.5,27.5-17.3h0Z" fill="none" stroke="#0e3700" stroke-width="2"/><path d="M1548.4,48.5c-.2.3-.3.7-.5,1s-.3.7-.5,1h36.2c-.3-.7-.6-1.3-.9-2Z" fill="#0e3700"/><path d="M1551,42.5h29.2c-.3-.7-.5-1.3-.8-2h-27.7C1551.5,41.2,1551.2,41.8,1551,42.5Z" fill="#0e3700"/><path d="M1553.9,34.5h23.2c-.2-.7-.5-1.3-.7-2h-21.9Z" fill="#0e3700"/><path d="M1586.7,56.5h-42.2a19.836,19.836,0,0,1-1.1,2h44.3A18.652,18.652,0,0,0,1586.7,56.5Z" fill="#0e3700"/><path d="M1591.3,64.5H1540c-.4.7-.8,1.3-1.2,2h53.9C1592.2,65.8,1591.8,65.2,1591.3,64.5Z" fill="#0e3700"/><path d="M1596.9,72.5h-62.2c-.5.7-1,1.3-1.5,2h65.2C1597.9,73.8,1597.4,73.2,1596.9,72.5Z" fill="#0e3700"/><path d="M1603.7,80.5h-75.2c-.6.7-1.2,1.3-1.7,2h78.8C1604.9,81.8,1604.3,81.2,1603.7,80.5Z" fill="#0e3700"/><path d="M1584.3,88.5h-62.1c-.2.6-.4,1.3-.6,2h60.2A24.324,24.324,0,0,1,1584.3,88.5Z" fill="#0e3700"/><path d="M1576.4,96.5H1521v2h54C1575.5,97.8,1575.9,97.1,1576.4,96.5Z" fill="#0e3700"/><path d="M1571.8,104.5h-50.4c.1.7.2,1.3.3,2h49.4A7.952,7.952,0,0,1,1571.8,104.5Z" fill="#0e3700"/><path d="M1569.6,112.5H1523c.2.7.4,1.3.6,2h45.7C1569.4,113.8,1569.5,113.2,1569.6,112.5Z" fill="#0e3700"/><path d="M1569.7,120.5h-43.5a19.836,19.836,0,0,0,1.1,2h42.8A14.18,14.18,0,0,1,1569.7,120.5Z" fill="#0e3700"/><path d="M1572,128.5h-40.8c.5.7,1.1,1.3,1.6,2H1573C1572.7,129.8,1572.3,129.2,1572,128.5Z" fill="#0e3700"/><path d="M1575.9,135.5h-38.2c.8.7,1.5,1.4,2.3,2h36.8C1576.5,136.8,1576.2,136.2,1575.9,135.5Z" fill="#0e3700"/></g></svg>